<svg width="223" height="131" viewBox="0 0 223 131" fill="none" xmlns="http://www.w3.org/2000/svg">
<g clip-path="url(#clip0_354_2247)">
<path d="M31.8 90.9C31.8 90.9 31.9 91.5 32.2 92.5C32.5 93.5 32.9 95.1 33.3 97C33.7 99 34 101.4 34.1 104.2C34.1 105.6 34 107.1 33.8 108.7C33.6 110.3 33.2 111.9 32.5 113.5C32.2 114.3 31.8 115.1 31.4 115.9C31.3 116.1 31.2 116.3 31 116.5C30.9 116.7 30.8 116.9 30.6 117.1C30.5 117.3 30.3 117.5 30.2 117.7C30.1 117.9 29.9 118.1 29.8 118.3C28.6 119.8 27.1 121.1 25.4 122.1C23.6 123.1 21.6 123.8 19.5 123.9C17.4 124 15.1 123.4 13.2 122.3C11.3 121.2 9.60001 119.4 8.80001 117.2L8.70001 116.8L8.60001 116.6L8.50001 116.4C8.40001 116.1 8.40001 115.9 8.30001 115.6C8.30001 115.3 8.20001 115 8.20001 114.7C8.20001 114.4 8.20001 114.1 8.20001 113.8C8.20001 112.6 8.50001 111.5 8.90001 110.4C9.70001 108.2 11.2 106.3 13.1 104.9C13.6 104.5 14.1 104.2 14.6 104C14.9 103.9 15.1 103.7 15.4 103.6C15.7 103.5 16 103.4 16.2 103.3C17.3 102.9 18.5 102.6 19.6 102.5C21.9 102.2 24.3 102.4 26.6 102.9C27.7 103.2 28.8 103.5 29.9 103.9C31 104.3 32 104.8 33 105.3C35 106.4 36.9 107.6 38.7 108.9C40.5 110.2 42.3 111.5 44 112.8C47.4 115.4 50.7 118 53.7 120.5C56.7 123 59.5 125.5 62.4 127.3C63.1 127.7 63.8 128.2 64.6 128.5C65.3 128.9 66 129.2 66.8 129.4C67.5 129.7 68.2 129.9 68.9 130C69.6 130.1 70.3 130.3 71 130.3C73.7 130.5 76.1 129.9 77.7 128.9C79.3 127.9 80.2 126.5 80.4 125.5C80.4 125.4 80.5 125.3 80.5 125.2C80.5 125.1 80.5 125 80.5 124.9C80.5 124.7 80.5 124.6 80.5 124.4C80.5 124.1 80.5 124 80.5 124C80.5 123.8 80.6 123.7 80.8 123.7C81 123.7 81.1 123.8 81.1 124C81.1 124 81.1 124.2 81.1 124.5C81.1 124.6 81.1 124.8 81.1 125.1C81.1 125.2 81.1 125.3 81 125.5C81 125.6 81 125.8 80.9 125.9C80.6 127 79.7 128.5 78 129.7C76.3 130.9 73.7 131.5 70.9 131.3C70.2 131.2 69.5 131.1 68.7 131C68 130.8 67.2 130.6 66.5 130.4C65 129.9 63.5 129.1 62 128.2C59 126.4 56.2 123.9 53.2 121.4C50.2 118.9 46.9 116.3 43.5 113.7C41.8 112.4 40 111.1 38.2 109.8C36.4 108.5 34.5 107.3 32.6 106.3C31.6 105.8 30.6 105.3 29.6 104.9C28.6 104.5 27.5 104.2 26.4 103.9C24.2 103.4 22 103.2 19.8 103.5C18.7 103.6 17.6 103.9 16.6 104.3C16.1 104.5 15.6 104.7 15.1 105C14.6 105.3 14.2 105.5 13.7 105.9C11.9 107.2 10.6 109 9.80001 111C9.40001 112 9.20001 113.1 9.20001 114.1C9.20001 114.4 9.20001 114.6 9.20001 114.9C9.20001 115.2 9.30001 115.4 9.30001 115.7C9.30001 116 9.40001 116.2 9.50001 116.5V116.7L9.60001 116.9L9.70001 117.3C10.4 119.3 11.9 120.9 13.7 121.9C15.5 122.9 17.5 123.5 19.5 123.4C21.5 123.3 23.4 122.7 25 121.8C26.6 120.8 28.1 119.6 29.2 118.2C29.3 118 29.5 117.9 29.6 117.7C29.7 117.5 29.9 117.4 30 117.2C30.1 117 30.2 116.8 30.4 116.6C30.5 116.4 30.6 116.2 30.7 116C31.1 115.2 31.5 114.5 31.8 113.7C33 110.6 33.4 107.4 33.4 104.7C33.4 101.9 33.1 99.5 32.7 97.6C32.3 95.6 31.9 94.1 31.7 93.1C31.4 92.1 31.3 91.5 31.3 91.5C31.3 91.3 31.4 91.2 31.5 91.1C31.6 90.6 31.8 90.7 31.8 90.9Z" fill="#37379E"/>
<path d="M192.5 42.6L194.8 45.3C195.8 46.5 195.7 48.2 194.6 49.2C186.8 56.5 156.5 84.4 149.5 90.9C148.7 91.7 147.4 91.7 146.5 91C141.6 86.8 126.1 73.7 121.4 69.4C120.5 68.5 119.9 67.4 119.8 66.1L119.3 61.8L192.5 42.6Z" fill="#6262E3"/>
<path d="M192.7 38.9C192.7 38.9 191.7 42.5 192.7 46.4C192.9 47.1 192.7 47.8 192.2 48.3L149 88.9C148.3 89.6 147.1 89.6 146.4 89L121.7 67.8L120.7 63.1L192.7 38.9Z" fill="#ABE9FF"/>
<path opacity="0.22" d="M190.1 39.2C190.1 39.2 189 43.3 190.4 47.3L147.6 87C146.9 87.7 145.8 87.7 145.1 87.1L121.2 66.8L120.2 62.3L190.1 39.2Z" fill="white"/>
<path d="M120.4 59.5C128.7 51.6 154.9 26.5 163.6 18.2C164.6 17.3 166 17 167.2 17.6C172.4 20 186.3 27 193.9 36.3C195 37.6 194.9 39.5 193.7 40.7L148.7 85.5C147.5 86.7 145.5 86.8 144.2 85.6L120.5 64.4C119 63 119 60.8 120.4 59.5Z" fill="#4343C4"/>
<path opacity="0.22" d="M154.6 30.9L162.7 22.7C163.4 22 164.4 21.8 165.3 22.3C169.2 24.3 180 30.1 186.7 37.7C187.5 38.6 187.4 40.1 186.5 40.9L178.7 47.7C177.9 48.4 176.9 48.4 176 47.9L155 34.5C153.8 33.7 153.6 32 154.6 30.9Z" fill="white"/>
<path d="M147.6 87.2C147.6 87.2 147.5 87.2 147.6 87.2C147.5 87.1 147.5 87.1 147.5 87L190.6 45.5H190.7V45.6L147.6 87.2Z" fill="white"/>
<path d="M148.9 87.9C148.8 87.8 148.8 87.8 148.8 87.7L191.1 46.7H191.2V46.8L148.9 87.9C149 87.9 149 87.9 148.9 87.9Z" fill="white"/>
<path d="M173.1 19.8L176.3 21.3C177.7 22 178.3 23.6 177.7 25C173.4 34.8 156.7 72.4 152.9 81.1C152.4 82.1 151.3 82.7001 150.2 82.3001C144 80.4001 124.6 74.6001 118.6 72.4001C117.4 72 116.4 71.1 115.8 70.1L113.7 66.4001L173.1 19.8Z" fill="#F2973D"/>
<path d="M171.8 16.4C171.8 16.4 172.3 20.1 174.8 23.2C175.2 23.7 175.3 24.5 175.1 25.1L151.6 79.5C151.2 80.4 150.2 80.9 149.2 80.6L118 71.1L115.2 67.2L171.8 16.4Z" fill="#ABE9FF"/>
<path opacity="0.22" d="M169.6 17.7C169.6 17.7 170.2 21.9 173.1 25.1L149.6 78.5C149.2 79.4 148.2 79.8 147.3 79.6L117.3 70.5L114.7 66.8L169.6 17.7Z" fill="white"/>
<path d="M113.7 64C118.2 53.4 132.2 20 136.9 8.90002C137.4 7.70002 138.7 6.90002 140 6.90002C145.8 7.00002 161.3 8.00002 171.9 13.5C173.4 14.3 174.1 16.1 173.5 17.6L150 76.6C149.4 78.2 147.6 79 145.9 78.5L115.7 68.4C113.8 67.8 112.9 65.8 113.7 64Z" fill="#F2973D"/>
<path opacity="0.22" d="M133.7 24.2L137.9 13.4C138.3 12.5 139.2 11.9 140.1 12C144.5 12.3 156.7 13.3 165.8 17.6C166.9 18.1 167.4 19.5 166.9 20.6L162.4 29.9C162 30.8 161 31.3 160 31.1L135.4 27.1C134.1 27 133.2 25.5 133.7 24.2Z" fill="white"/>
<path d="M149.6 78.6C149.5 78.6 149.5 78.5 149.5 78.5L172.6 23.3C172.6 23.2 172.7 23.2 172.7 23.2C172.8 23.2 172.8 23.3 172.8 23.3L149.6 78.6C149.7 78.6 149.6 78.6 149.6 78.6Z" fill="white"/>
<path d="M151.1 78.8C151 78.8 151 78.7 151 78.7L173.5 24.3C173.5 24.2 173.6 24.2 173.6 24.2C173.7 24.2 173.7 24.3 173.7 24.3L151.1 78.8C151.2 78.7 151.2 78.8 151.1 78.8Z" fill="white"/>
<path d="M78.8 87.9C78.8 91.5 76.1 94.6 72.8 94.9C72.8 94.9 6.2 103.6 0 101.4C2 96.9 0 101.4 0 101.4C4.3 99.4 7.6 97.5 7.6 93.5V19.2L78.8 22V87.9Z" fill="#6262E3"/>
<path d="M73.6 36.4L47.1 36.6V33.9L73.6 33.8V36.4Z" fill="white"/>
<path d="M44.2 59.3L15 60.6V34L44.2 33.9V59.3Z" fill="#FBC922"/>
<path d="M73.6 40.7L47.1 41.0999V38.4L73.6 38.2V40.7Z" fill="white"/>
<path d="M73.6 45.0999L47.1 45.5999V42.8999L73.6 42.4999V45.0999Z" fill="white"/>
<path d="M73.6 49.4L47.1 50.1V47.5L73.6 46.8V49.4Z" fill="white"/>
<path d="M73.6 53.7L47.1 54.6V52L73.6 51.1V53.7Z" fill="white"/>
<path d="M73.6 57.9999L47.1 59.1999V56.4999L73.6 55.4999V57.9999Z" fill="white"/>
<path d="M73.6 63.9L47.1 65.3V62.6L73.6 61.3V63.9Z" fill="white"/>
<path d="M73.6 68.2L47.1 69.8V67.1L73.6 65.6V68.2Z" fill="white"/>
<path d="M73.6 72.4999L47.1 74.2999V71.5999L73.6 69.9999V72.4999Z" fill="white"/>
<path d="M73.6 76.9L47.1 78.8V76.2L73.6 74.3V76.9Z" fill="white"/>
<path d="M73.6 81.2L47.1 83.3V80.7L73.6 78.6V81.2Z" fill="white"/>
<path d="M44.2 65.4L15 67V64.2L44.2 62.8V65.4Z" fill="white"/>
<path d="M44.2 70L15 71.7V68.9L44.2 67.3V70Z" fill="white"/>
<path d="M44.2 74.5L15 76.5V73.7L44.2 71.8V74.5Z" fill="white"/>
<path d="M44.2 79L15 81.2V78.4L44.2 76.4V79Z" fill="white"/>
<path d="M44.2 83.6L15 86V83.2L44.2 80.9V83.6Z" fill="white"/>
<path d="M77 115.9L77.4 122.4C77.4 123.2 78.1 123.8 78.8 123.8L82.2 124C83 124 83.7 123.4 83.8 122.6L84.4 115.9H77Z" fill="#37379E"/>
<path d="M140.9 116.7H77.3C74 116.7 71.3 114 71.3 110.7V6C71.3 2.7 74 0 77.3 0H140.9C144.2 0 146.9 2.7 146.9 6V110.7C146.9 114 144.2 116.7 140.9 116.7Z" fill="#37379E"/>
<path opacity="0.65" d="M108.9 114.8C106.1 114.8 103.8 112.5 103.8 109.7C103.8 106.9 106.1 104.6 108.9 104.6C111.7 104.6 114 106.9 114 109.7C114 112.4 111.7 114.8 108.9 114.8ZM108.9 104.9C106.3 104.9 104.2 107 104.2 109.6C104.2 112.2 106.3 114.3 108.9 114.3C111.5 114.3 113.6 112.2 113.6 109.6C113.6 107 111.5 104.9 108.9 104.9Z" fill="white"/>
<path d="M136.4 103.5H81.7C78.4 103.5 75.7 100.8 75.7 97.5V12.4C75.7 9.10002 78.4 6.40002 81.7 6.40002H136.4C139.7 6.40002 142.4 9.10002 142.4 12.4V97.5C142.4 100.8 139.7 103.5 136.4 103.5Z" fill="#6262E3"/>
<path opacity="0.5" d="M116.4 4.29998H101.7C101.1 4.29998 100.6 3.79998 100.6 3.19998C100.6 2.59998 101.1 2.09998 101.7 2.09998H116.4C117 2.09998 117.5 2.59998 117.5 3.19998C117.5 3.79998 117 4.29998 116.4 4.29998Z" fill="white"/>
<path d="M215.2 68.2C215.2 68.2 222.1 72 222.6 78.4C223.2 84.8 222.6 111.6 208.9 118.1C195.1 124.7 176.9 123.2 169.9 122.4C162.9 121.7 159.1 116.9 158.2 113.7C157.3 110.4 155.9 98.3 163.3 94.3C170.6 90.4 178.4 84.4 186.1 78.5C193.8 72.8 207 63.3 215.2 68.2Z" fill="#37379E"/>
<path d="M165.5 96.7C165.5 96.7 167.4 96.8 167.6 100.6C167.6 100.6 163.3 104.5 157.5 105.4C157.1 105.5 158.1 102.4 158.3 102C159 100 161.3 98.8 165.5 96.7Z" fill="url(#paint0_linear_354_2247)"/>
<path d="M186.3 92.2H184.4C183.1 92.2 181.9 91.7 181 90.8C177.9 87.6 170.2 80.1 164.1 78.1C163.1 77.8 162 78.2 161.6 79.2C160.3 81.9 158.5 88.2 162.8 97.8C163.3 98.9 164.6 99.3 165.6 98.7C165.9 98.5 166.1 98.3 166.2 98L165.7 86.8C165.7 86.8 175.9 95.8 177.7 97.5C179.5 99.1 188.6 98.1 186.3 92.2Z" fill="#03CDFD"/>
<path d="M148.5 120.1C150.1 118.7 152.8 117.1 156.5 116.6L157.8 117.4C157.8 117.4 157 118.6 155.5 119.9C154.1 120.7 152 121.8 150.3 122C148.6 122.1 148.4 121.1 148.5 120.1Z" fill="url(#paint1_linear_354_2247)"/>
<path d="M158.2 102C159.2 102.3 159.7 103.8 162.2 102.8C164.7 101.9 166.5 100.7 167.5 100C167.5 100.2 167.5 100.4 167.6 100.6C167.6 100.6 163.1 104.9 157.3 105.8C156.9 105.9 156.5 105.4 156.7 105C156.9 104.3 157.4 103.2 158.2 102Z" fill="url(#paint2_linear_354_2247)"/>
<path d="M147.3 121.3C147.6 120.9 148 120.5 148.5 120.1C148.3 121.1 148.6 122.2 150.3 121.9C152 121.7 154.2 120.6 155.5 119.8C153.8 121.3 151.2 122.8 147.9 122.7C147.2 122.7 146.8 121.8 147.3 121.3Z" fill="url(#paint3_linear_354_2247)"/>
<path d="M184.9 80.2C184.9 80.2 181.9 88.9 176 82.3L175.4 82.1L171.2 79.2L171.7 80.9C172 81.8 172.6 82.6 173.5 82.9L174.1 83.1C175.2 85.3 177.4 88.6 180.9 89.2C186.1 90.1 188.8 83.1 188.8 83.1L184.9 80.2Z" fill="#B2563D"/>
<path d="M186.2 95.1L167.9 95.3C167.9 95.3 157.4 104 155.5 117.2C155.5 117.2 155.2 118.2 157.1 118.3C157.1 118.3 163.4 114.2 167.6 106.9C172.7 97.9 182.7 102 182.7 102C186 99.6 190.6 99.1 194.1 98.4L186.2 95.1Z" fill="#0680F1"/>
<path d="M184.7 94.9C184.7 94.9 186.9 88.8 187.4 82.9C187.4 82.9 185.8 81.5 184.7 80.9C184.4 80.7 184.2 80.3 184.4 79.9C185.2 78.3 189.7 72.2 190.1 72.1C192 71.6 199.6 68 204.9 75.4C207.2 78.5 204.4 88.2 194 98.3L191.8 98.7L184.7 94.9Z" fill="#FBC922"/>
<path d="M197 66.9L198.4 71.4C198.5 71.6 198.4 71.8 198.2 72C197.5 72.4 195.8 73.3 193.5 72.5C193.2 72.4 193 72.1 193 71.9L192.7 67.9L197 66.9Z" fill="#B2563D"/>
<path d="M189 63.3C189 63.3 189.7 68 191.5 69.5C193.3 70.9 196.8 69.9 198 66.3L195.6 60.2L189 63.3Z" fill="#B2563D"/>
<path d="M195.9 64.1C195.8 64.1 195.6 64.1 195.6 63.9C195.5 63.5 195.4 62.6 195 62C195 62 195.2 61.4 193.4 62.3C191.7 63.2 189.1 64.6 187.5 63.8C186 63 184.5 59 188.4 59.7C188.6 59.7 188.7 59.6 188.7 59.5C188.7 58.8 188.7 57.3 190.3 56.8C191.7 56.3 192.5 57 192.8 57.4C192.9 57.5 193.1 57.5 193.2 57.4C193.6 56.8 194.8 55.6 196.5 56.4C197.9 57 198.1 57.9 198.1 58.4C198.1 58.6 198.3 58.7 198.4 58.6C198.8 58.4 199.5 58.3 200.2 59.1C201.1 60.3 199.8 61.3 199.4 61.5C199.3 61.5 199.3 61.6 199.3 61.7C199.3 62.3 199.2 64.9 197.9 66.4C197.8 66.5 197.6 66.5 197.5 66.3L196.5 63.9C196.5 63.8 196.3 63.7 196.2 63.8L195.9 64.1Z" fill="url(#paint4_linear_354_2247)"/>
<path d="M195.9 64.6C195.9 64.6 196.5 62.1 197.5 62.9C198.4 63.7 197.3 65.5 196.2 65.9L195.9 64.6Z" fill="#B2563D"/>
<path d="M187.4 83C187.3 83 187.3 82.9 187.3 82.9C187.3 80.1 188.4 76.5 188.4 76.5C188.4 76.4 188.5 76.4 188.6 76.4C188.7 76.4 188.7 76.5 188.7 76.6C188.7 76.6 187.6 80.2 187.7 83C187.6 83 187.5 83 187.4 83Z" fill="#E78456"/>
<path d="M194.4 85.3C194.3 85.3 194.2 85.2 194.3 85.1C194.3 85.1 196.2 80.9 196.5 78.3C196.5 78.2 196.6 78.2 196.7 78.2C196.8 78.2 196.8 78.3 196.8 78.4C196.5 81.1 194.6 85.3 194.6 85.3C194.5 85.2 194.4 85.3 194.4 85.3Z" fill="#E78456"/>
<path d="M199.7 89.6L199 89C198.9 88.9 198.9 88.9 199 88.8C199.1 88.7 199.1 88.7 199.2 88.8L199.7 89.3C203.1 86.6 204.3 81.4 204.3 81.3C204.3 81.2 204.4 81.2 204.5 81.2C204.6 81.2 204.6 81.3 204.6 81.4C204.6 81.4 203.3 86.8 199.7 89.6Z" fill="#E78456"/>
<path d="M169.2 77L168.9 77.4C168.8 77.6 168.8 77.9 169 78L175.6 82.5C175.8 82.6 176 82.6 176.2 82.4C176.4 82.2 176.3 81.9 176.2 81.8L169.9 76.9C169.6 76.7 169.3 76.8 169.2 77Z" fill="url(#paint5_linear_354_2247)"/>
<path d="M174 90.4C173.7 90.4 173.4 90.7 173.4 91.1C173.4 92.4 173.6 95.1 175.3 95.6C177.4 96.2 179.9 95.2 179.3 90.8C179.2 90.3 178.9 90 178.5 90L174 90.4Z" fill="white"/>
<path d="M178.4 94.1C178.4 94.1 189.5 94.1 195.1 85.4L198.4 88.4C198.4 88.4 191.8 99.7 179.3 95.5C179.3 95.5 176.4 96.1 174.8 95.6C173.9 95.3 173.4 94.5 173.1 93.9C173 93.5 173.3 93.1 173.7 93.3C174.9 93.7 176.9 94.3 178.4 94.1Z" fill="#B2563D"/>
<path d="M178.9 91.4C178.9 91.4 179.6 89.6 180.7 90.9C181.9 92.2 180 93.2 178.9 93.4V92.9C178.9 92.9 180.2 92.3 180 91.6C179.8 90.8 178.9 91.8 178.9 91.8V91.4Z" fill="white"/>
<path d="M174.8 82.4C174.8 82.4 174.8 82.4 174.9 82.4C175 82.4 175.1 82.5 175.2 82.5C175.5 82.6 175.8 82.8 176.2 83.3C176.5 83.7 176.8 84.3 176.6 85C176.5 85.3 176.3 85.6 176.1 85.8C175.9 86 175.6 86.2 175.3 86.4C175 86.6 174.8 86.8 174.6 87.1C174.4 87.4 174.3 87.7 174.4 87.9C174.5 88.2 174.7 88.4 174.9 88.5C175.1 88.7 175.4 88.8 175.6 88.9C176 89.1 176.4 89.4 176.5 89.6C176.6 89.9 176.6 90 176.6 90C176.6 90 176.6 89.8 176.5 89.6C176.4 89.4 176 89.1 175.6 88.9C175.4 88.8 175.1 88.7 174.9 88.6C174.7 88.5 174.4 88.2 174.3 87.9C174.2 87.6 174.3 87.2 174.5 87C174.7 86.7 174.9 86.5 175.2 86.3C175.5 86.1 175.7 85.9 175.9 85.7C176.1 85.5 176.3 85.2 176.4 85C176.5 84.4 176.3 83.9 176 83.5C175.7 83.1 175.4 83 175.1 82.8C175 82.7 174.9 82.7 174.8 82.7C174.7 82.7 174.7 82.7 174.7 82.7C174.6 82.7 174.6 82.6 174.6 82.5C174.6 82.5 174.7 82.4 174.8 82.4Z" fill="white"/>
<path d="M177.2 86C177.2 86.1 177.1 86.1 177.1 86.2C177 86.3 176.9 86.5 176.7 86.6C176.5 86.8 176.4 87 176.3 87.2C176.2 87.4 176.4 87.7 176.7 87.9C176.9 88.1 177.2 88.2 177.5 88.4C177.6 88.5 177.7 88.6 177.8 88.8C177.9 89 177.9 89.1 177.9 89.2C177.9 89.5 177.7 89.6 177.6 89.7C177.5 89.8 177.4 89.8 177.4 89.8H177.3V89.7C177.3 89.7 177.4 89.7 177.5 89.6C177.6 89.5 177.7 89.4 177.7 89.1C177.7 89 177.7 88.9 177.7 88.8C177.6 88.7 177.6 88.6 177.5 88.5C177.3 88.3 177 88.2 176.7 88C176.6 87.9 176.4 87.8 176.3 87.6C176.2 87.4 176.2 87.3 176.2 87.1C176.3 86.8 176.5 86.5 176.7 86.4C176.9 86.2 177 86.1 177.1 86C177.1 85.9 177.2 85.9 177.2 85.9V85.8C177.2 85.7 177.3 85.7 177.4 85.7C177.2 85.8 177.3 85.9 177.2 86Z" fill="white"/>
<path d="M88.5 100.5H84.1C83.9 100.5 83.8 100.4 83.8 100.2V96.3C83.8 96.2 83.8 96.1 83.9 96.1C84 96 84 96 84.1 96L88.8 96.1L86 93.4L83 96.6C82.9 96.7 82.7 96.7 82.6 96.6C82.5 96.5 82.5 96.3 82.6 96.2L85.9 92.7C86 92.6 86 92.6 86.1 92.6C86.2 92.6 86.3 92.6 86.3 92.7L89.8 96.2C89.9 96.3 89.9 96.4 89.9 96.5C89.9 96.6 89.7 96.7 89.6 96.7L84.5 96.6V99.8H88.3L88.2 97.2C88.2 97 88.3 96.9 88.5 96.9C88.7 96.9 88.8 97 88.8 97.2L88.9 100.1C88.9 100.2 88.9 100.3 88.8 100.3C88.7 100.5 88.6 100.5 88.5 100.5Z" fill="white"/>
<path d="M116 100.5L100.7 100.2C100 100.2 99.4 99.6 99.4 98.9V97C99.4 96.6 99.5 96.3 99.8 96C100 95.7 100.4 95.6 100.7 95.6L116 95.4C116.3 95.4 116.7 95.5 116.9 95.8C117.2 96 117.3 96.4 117.3 96.7V99.1C117.3 99.5 117.2 99.8 116.9 100C116.7 100.3 116.4 100.5 116 100.5ZM116 96L100.7 96.2C100.5 96.2 100.3 96.3 100.2 96.4C100.1 96.5 100 96.7 100 96.9L100.1 98.8C100.1 99.2 100.4 99.5 100.8 99.5L116 99.8C116.2 99.8 116.4 99.7 116.5 99.6C116.6 99.5 116.7 99.3 116.7 99.1V96.7C116.7 96.5 116.6 96.3 116.5 96.2C116.4 96.1 116.2 96 116 96Z" fill="white"/>
<path d="M127.5 100.7C127.4 100.7 127.4 100.7 127.3 100.7C127.2 100.6 127.2 100.6 127.2 100.5L127 96.3C127 96.1 127.1 96 127.3 96C127.5 96 127.6 96.1 127.6 96.3L127.8 100.1L131.9 98.4C132 98.4 132 98.3 132 98.2C132 98.2 132 98.1 131.9 98L128.1 96C128 95.9 127.9 95.7 128 95.6C128.1 95.5 128.3 95.4 128.4 95.5L132.2 97.5C132.5 97.6 132.6 97.9 132.6 98.2C132.6 98.5 132.4 98.8 132.1 98.9L127.6 100.7C127.5 100.7 127.5 100.7 127.5 100.7Z" fill="white"/>
<path d="M136.3 92.3H81.9C80.8 92.3 79.9 91.4 79.9 90.3V14.1C79.9 13 80.8 12.1 81.9 12.1H136.3C137.4 12.1 138.3 13 138.3 14.1V90.3C138.3 91.4 137.4 92.3 136.3 92.3Z" fill="#E5E5FF"/>
<path d="M44 15.8C57.1 15.6 121.7 14.5 134.9 14.2C136.2 14.2 137.3 15.2 137.3 16.5V22.5C137.3 23.8 136.3 24.8 135 24.8H44.1C42.8 24.8 41.8 23.8 41.8 22.5V18C41.7 16.8 42.7 15.8 44 15.8Z" fill="#03CDFD"/>
<path opacity="0.64" d="M60.5 20.4C60.5 21.7 61.6 22.8 62.9 22.8L115.6 21.9C117.1 21.9 118.2 20.5 117.8 19L117.6 18C117.3 16.9 116.3 16.2 115.2 16.2L62.8 18.1C61.5 18.1 60.5 19.2 60.5 20.4Z" fill="white"/>
<path d="M48.7 20.8L40.6 29C40.3 29.3 40.3 29.9001 40.7 30.2001L40.8 30.3C41.1 30.6 41.6 30.5001 41.9 30.2001L49.3 21.3L48.7 20.8Z" fill="white"/>
<path opacity="0.5" d="M57 14.1001C58.3 16.7001 57.1 19.9001 54.4 21.2001C51.7 22.5001 48.5 21.4 47.3 18.8C46 16.2 47.2 13.0001 49.9 11.7001C52.6 10.4001 55.8 11.5001 57 14.1001Z" fill="url(#paint6_linear_354_2247)"/>
<path d="M49.7 11.2C46.7 12.6 45.4 16.1 46.8 19.1C48.2 22 51.7 23.2 54.7 21.8C57.7 20.4 59 16.9 57.6 13.9C56.2 11 52.7 9.80003 49.7 11.2ZM54.4 21C51.9 22.2 48.8 21.2 47.7 18.7C46.5 16.2 47.6 13.2 50.1 12C52.6 10.8 55.7 11.8 56.8 14.3C58 16.8 56.9 19.8 54.4 21Z" fill="white"/>
<path d="M46.9 18.1C46.9 18.1 46.8 18.1 46.8 18C46.7 17.6 46.6 17.2 46.6 16.9C46.6 16.8 46.6 16.8 46.7 16.8C46.8 16.8 46.8 16.8 46.8 16.9C46.8 17.3 46.9 17.6 47 18C47 18 46.9 18 46.9 18.1Z" fill="white"/>
<path d="M42.1 28C42.1 28 42 27.9 42.1 28C42 27.9 42 27.8 42 27.8L42.1 27.7C42.1 27.7 42.2 27.7 42.3 27.7C42.3 27.7 42.3 27.8 42.3 27.9L42.1 28C42.1 27.9 42.1 28 42.1 28Z" fill="white"/>
<path fill-rule="evenodd" clip-rule="evenodd" d="M111 36C98.7 36 87.1 46.4 87.1 57.9C87.1 69.5 96.1 79.2 108.4 79.2C120.7 79.2 132.7 69.3 132.7 57.8C132.6 46.2 123.3 36 111 36Z" fill="#0090E3"/>
<path opacity="0.47" fill-rule="evenodd" clip-rule="evenodd" d="M129.1 45.9C125.8 40.8 120.3 37 113.8 36.2C115.2 37.3 116.1 39.7 115.9 45.4C115.8 49.8 127.5 49.4 127.6 49C127.9 48.8 128.6 47.6 129.1 45.9Z" fill="white"/>
<path opacity="0.47" fill-rule="evenodd" clip-rule="evenodd" d="M127.5 70.5C130.7 66.9 132.6 62.5 132.6 57.8C132.6 57.7 132.6 57.7 132.6 57.6C131.5 57.5 129.6 57.5 125.9 58.1C125.7 58.1 114.4 53.5 118.9 59.8C121.9 64.1 123.8 59.9 126.1 68.2C126.4 69.1 126.9 69.9 127.5 70.5Z" fill="white"/>
<path opacity="0.47" fill-rule="evenodd" clip-rule="evenodd" d="M108.6 79.2C114.1 79.1 119.5 77.1 123.8 73.9C119 68.1 120.5 76 113.1 72.7C112.2 72.3 108.9 76.1 108.6 79.2Z" fill="white"/>
<path opacity="0.47" fill-rule="evenodd" clip-rule="evenodd" d="M94.1 42.9C90.3 46.4 87.7 51 87.2 55.9C89 57.5 90.8 58.3 90.6 58.9C87.7 65.4 93.8 65.5 93.8 64.8C94.9 51.8 99 66.9 94.3 71.1C93.7 71.6 93.2 72.1 92.8 72.6C95.3 75.2 98.4 77.2 102.1 78.3C103.1 75.6 103 72.2 104 69.8C105.6 65.8 117.8 71.4 114.5 61.1C111.7 52.4 92.5 61.8 95.4 53.6C95.5 53.2 103.5 51.4 103.8 51.6C109.5 55.5 112.5 46.7 108.8 46.9C97.2 47.3 106.2 42.9 101.9 42.9C96.7 42.9 94.9 43.1 94.1 42.9Z" fill="white"/>
</g>
<defs>
<linearGradient id="paint0_linear_354_2247" x1="163.596" y1="100.336" x2="156.875" y2="107.356" gradientUnits="userSpaceOnUse">
<stop stop-color="#2B3582"/>
<stop offset="1" stop-color="#150E42"/>
</linearGradient>
<linearGradient id="paint1_linear_354_2247" x1="154.68" y1="117.956" x2="141.967" y2="127.286" gradientUnits="userSpaceOnUse">
<stop stop-color="#2B3582"/>
<stop offset="1" stop-color="#150E42"/>
</linearGradient>
<linearGradient id="paint2_linear_354_2247" x1="148.605" y1="112.993" x2="175.353" y2="91.144" gradientUnits="userSpaceOnUse">
<stop stop-color="#FDF53F"/>
<stop offset="0.6645" stop-color="#E57A58"/>
<stop offset="1" stop-color="#D93C65"/>
</linearGradient>
<linearGradient id="paint3_linear_354_2247" x1="141.349" y1="128.659" x2="168.097" y2="106.81" gradientUnits="userSpaceOnUse">
<stop stop-color="#FDF53F"/>
<stop offset="0.6645" stop-color="#E57A58"/>
<stop offset="1" stop-color="#D93C65"/>
</linearGradient>
<linearGradient id="paint4_linear_354_2247" x1="194.975" y1="51.3009" x2="192.371" y2="66.1537" gradientUnits="userSpaceOnUse">
<stop stop-color="#2B3582"/>
<stop offset="1" stop-color="#150E42"/>
</linearGradient>
<linearGradient id="paint5_linear_354_2247" x1="168.824" y1="79.6984" x2="176.306" y2="79.6984" gradientUnits="userSpaceOnUse">
<stop stop-color="#2B3582"/>
<stop offset="1" stop-color="#150E42"/>
</linearGradient>
<linearGradient id="paint6_linear_354_2247" x1="47.3681" y1="18.7666" x2="57.0453" y2="14.1483" gradientUnits="userSpaceOnUse">
<stop stop-color="#B37CFF"/>
<stop offset="1" stop-color="#F895E7"/>
</linearGradient>
<clipPath id="clip0_354_2247">
<rect width="222.8" height="131" fill="white"/>
</clipPath>
</defs>
</svg>
