<svg width="214" height="135" viewBox="0 0 214 135" fill="none" xmlns="http://www.w3.org/2000/svg">
<g clip-path="url(#clip0_354_2340)">
<path d="M181.4 117.6C181.4 119.1 180.2 120.4 178.8 120.4H38.9C37.5 120.4 36.3 119.1 36.3 117.6L35.1 30.7C35.1 29.2 36.8 26.2 39.8 26.4L176.6 22.6C178.4 22.6 180.1 23.3 181.4 24.7C182.7 26.1 183.4 27.9 183.3 29.9L181.4 117.6Z" fill="#2E1D66"/>
<path d="M178.9 114.9C178.9 116.4 177.8 117.5 176.5 117.5H42.2999C40.9999 117.5 39.9 116.3 39.9 114.9L38.7 36C38.8 31.3 42.7 29.5 45 29.6L176.1 25.8C177.4 25.8 178.6 26.3 179.5 27.2C180.4 28.2 180.9 29.5 180.8 30.8L178.9 114.9Z" fill="#BD3CC2"/>
<path d="M43.7999 113.6L42.7 36C42.8 33.6 44.6999 33.6 44.7999 33.6H44.9L176.1 29.8C176.2 29.8 176.3 29.9 176.4 30C176.6 30.2 176.7 30.5 176.7 30.8L174.8 113.6H43.7999Z" fill="#EAD0F3"/>
<path d="M189.3 127.6H31.3C29.4 127.6 27.8 125.9 27.8 123.8C27.8 121.7 29.4 120 31.3 120H189.2C191.1 120 192.7 121.7 192.7 123.8C192.8 125.9 191.2 127.6 189.3 127.6Z" fill="#2E1D66"/>
<path d="M30.9 33.8L34.2 32.3C35.6 33.2 37.2 33.9 38.9 34.4L40 37.8C40 37.9 40.1 38 40.3 38L44.6 38.1C44.7 38.1 44.8 38 44.9 37.9L46.1 34.5C47.8 34.1 49.4 33.5 50.8 32.7L54 34.4C54.1 34.5 54.2 34.4 54.3 34.4L57.4 31.4C57.5 31.3 57.5 31.2 57.5 31.1L56 27.8C56.9 26.4 57.6 24.8 58.1 23.1L61.5 22C61.6 22 61.7 21.9 61.7 21.7L61.8 17.4C61.8 17.3 61.7 17.2 61.6 17.1L58.2 15.9C57.8 14.2 57.2 12.6 56.4 11.2L58.1 8C58.2 7.9 58.1 7.8 58.1 7.7L55.1 4.6C55 4.5 54.9 4.5 54.8 4.5L51.5 6C50.1 5.1 48.5 4.4 46.8 3.9L45.7 0.5C45.7 0.4 45.6 0.3 45.4 0.3L41.1 0C41 0 40.9 0.1 40.8 0.2L39.6 3.6C37.9 4 36.3 4.6 34.9 5.4L31.7 3.7C31.6 3.6 31.5 3.7 31.4 3.7L28.3 6.7C28 6.9 28 7 28 7.2L29.5 10.5C28.6 11.9 27.9 13.5 27.4 15.2L24 16.3C23.9 16.3 23.8 16.4 23.8 16.6L23.7 20.9C23.7 21 23.8 21.1 23.9 21.2L27.3 22.4C27.7 24.1 28.3 25.7 29.1 27.1L27.4 30.3C27.3 30.4 27.4 30.5 27.4 30.6L30.4 33.7C30.7 33.8 30.8 33.9 30.9 33.8Z" fill="#0090E3"/>
<path opacity="0.56" d="M42.8 23.2C42 23.2 41.3 23 40.6 22.6C39.7 22 39 21.1 38.8 20C38.6 18.9 38.7 17.8 39.3 16.9C39.9 16 40.8 15.3 41.9 15.1C44.1 14.6 46.4 16 46.9 18.2C47.4 20.4 46 22.7 43.8 23.2C43.4 23.2 43.1 23.2 42.8 23.2ZM42.8 15.5C42.5 15.5 42.3 15.5 42 15.6C41.1 15.8 40.3 16.4 39.8 17.2C39.3 18 39.1 18.9 39.4 19.9C39.6 20.8 40.2 21.6 41 22.1C41.8 22.6 42.7 22.8 43.7 22.5C45.6 22.1 46.8 20.2 46.3 18.3C45.9 16.6 44.4 15.5 42.8 15.5Z" fill="white"/>
<path opacity="0.56" d="M42.8 29.8C42.7 29.8 42.6 29.8 42.6 29.8C41.8 29.8 41.1 29.7 40.3 29.5C40.2 29.5 40.1 29.3 40.1 29.2C40.1 29.2 40.1 29.2 40.1 29.1C40.1 28.9 40.3 28.8 40.5 28.9C41.2 29.1 41.9 29.2 42.6 29.2C45.3 29.3 47.9 28.3 49.8 26.4C51.8 24.5 52.9 22 52.9 19.3C52.9 19.2 52.9 19.2 52.9 19.1C52.9 13.6 48.5 9.09999 43 8.99999C37.4 8.89999 32.8 13.3 32.7 18.9C32.7 19 32.7 19 32.7 19.1C32.7 20.9 33.2 22.6 34 24.1C34 24.1 34 24.2 34 24.3C34 24.4 33.9 24.5 33.8 24.6C33.6 24.7 33.5 24.6 33.4 24.5C32.5 22.9 32 21 32 19.2C32 19.1 32 19 32 19C32.1 13.1 37 8.29999 43 8.49999C48.9 8.59999 53.5 13.4 53.5 19.3C53.5 19.4 53.5 19.5 53.5 19.5C53.4 22.4 52.3 25.1 50.2 27C48.2 28.8 45.6 29.8 42.8 29.8Z" fill="white"/>
<path d="M178.8 90.6C178.9 90.7 179 90.7 179.2 90.7L182.8 89.4C184.2 90.5 185.8 91.4 187.5 92L188.4 95.7C188.4 95.8 188.5 95.9 188.7 95.9L193.3 96.4C193.4 96.4 193.6 96.3 193.6 96.2L195.2 92.7C197 92.5 198.8 91.9 200.4 91.1L203.6 93.1C203.7 93.2 203.9 93.2 204 93.1L207.5 90.2C207.6 90.1 207.6 90 207.6 89.8L206.3 86.2C207.4 84.8 208.3 83.2 208.9 81.5L212.6 80.6C212.7 80.6 212.8 80.5 212.8 80.3L213.3 75.7C213.3 75.6 213.2 75.4 213.1 75.4L209.6 73.8C209.4 72 208.8 70.2 208 68.6L210 65.4C210.1 65.3 210.1 65.1 210 65L207.1 61.5C207 61.4 206.9 61.4 206.7 61.4L203.1 62.7C201.7 61.6 200.1 60.7 198.4 60.1L197.5 56.4C197.5 56.3 197.4 56.2 197.2 56.2L192.6 55.7C192.5 55.7 192.3 55.8 192.3 55.9L190.7 59.4C188.9 59.6 187.1 60.2 185.5 61L182.3 59C182.2 58.9 182 58.9 181.9 59L178.4 61.9C178.3 62 178.3 62.1 178.3 62.3L179.6 65.9C178.5 67.3 177.6 68.9 177 70.6L173.3 71.5C173.2 71.5 173.1 71.6 173.1 71.8L172.6 76.4C172.6 76.5 172.7 76.7 172.8 76.7L176.3 78.3C176.5 80.1 177.1 81.9 177.9 83.5L175.9 86.7C175.8 86.8 175.8 87 175.9 87.1L178.8 90.6Z" fill="#2E1D66"/>
<path opacity="0.56" d="M192.9 81C191.9 81 190.8 80.7 190 80C188.9 79.2 188.3 78.1 188.1 76.8C187.9 75.5 188.2 74.2 189 73.2C189.8 72.1 190.9 71.5 192.2 71.3C193.5 71.1 194.8 71.4 195.8 72.2C196.9 73 197.5 74.1 197.7 75.4C197.9 76.7 197.6 78 196.8 79C196 80.1 194.9 80.7 193.6 80.9C193.4 81 193.2 81 192.9 81ZM193 72.9C192.8 72.9 192.7 72.9 192.5 72.9C191.6 73 190.9 73.5 190.4 74.2C189.9 74.9 189.7 75.7 189.8 76.6C189.9 77.5 190.4 78.2 191.1 78.7C191.8 79.2 192.6 79.4 193.5 79.3C194.4 79.2 195.1 78.7 195.6 78C196.1 77.3 196.3 76.5 196.2 75.6C196.1 74.7 195.6 74 194.9 73.5C194.3 73.1 193.6 72.9 193 72.9Z" fill="white"/>
<path opacity="0.56" d="M193 87.4C192.6 87.4 192.2 87.4 191.8 87.3C191 87.2 190.2 87.1 189.4 86.8C189.3 86.8 189.2 86.7 189.2 86.5V86.4C189.2 86.3 189.4 86.2 189.6 86.2C190.3 86.4 191.1 86.6 191.8 86.7C197.7 87.3 203 83 203.6 77.1C203.6 76.7 203.7 76.4 203.7 76C203.7 70.5 199.6 65.9 194 65.3C188.1 64.7 182.8 69 182.2 74.9C182.2 75.3 182.1 75.6 182.1 76C182.1 77.6 182.4 79.1 183.1 80.6V80.7C183.1 80.8 183 80.9 182.9 81C182.8 81.1 182.6 81 182.5 80.9C181.8 79.4 181.4 77.8 181.4 76.1C181.4 75.7 181.4 75.3 181.5 75C182.1 68.8 187.7 64.2 193.9 64.9C199.7 65.5 204.1 70.4 204.1 76.2C204.1 76.6 204.1 77 204 77.4C203.7 83 198.8 87.4 193 87.4Z" fill="white"/>
<path d="M172.8 39.2C172.9 39.3 172.9 39.3 173 39.3L175.3 38.4C176.2 39.1 177.2 39.7 178.4 40.1L179 42.5C179 42.6 179.1 42.6 179.2 42.7L182.1 43C182.2 43 182.3 43 182.3 42.9L183.3 40.7C184.5 40.5 185.6 40.2 186.6 39.7L188.7 41C188.8 41 188.9 41 188.9 41L191.2 39.1C191.3 39 191.3 39 191.3 38.9L190.4 36.6C191.1 35.7 191.7 34.7 192.1 33.5L194.5 32.9C194.6 32.9 194.6 32.8 194.7 32.7L195 29.8C195 29.7 195 29.6 194.9 29.6L192.7 28.6C192.5 27.4 192.2 26.3 191.7 25.3L193 23C193 22.9 193 22.8 193 22.8L191.1 20.5C191 20.4 191 20.4 190.9 20.4L188.6 21.3C187.7 20.6 186.7 20 185.5 19.6L184.9 17.2C184.9 17.1 184.8 17.1 184.7 17L181.8 16.7C181.7 16.7 181.6 16.7 181.6 16.8L180.6 19C179.4 19.2 178.3 19.5 177.3 20L175.2 18.7C175.1 18.7 175 18.7 175 18.7L172.7 20.6C172.6 20.7 172.6 20.7 172.6 20.8L173.5 23.1C172.8 24 172.2 25 171.8 26.2L169.4 26.8C169.3 26.8 169.3 26.9 169.2 27L168.9 29.9C168.9 30 168.9 30.1 169 30.1L171.2 31.1C171.4 32.3 171.7 33.4 172.2 34.4L170.9 36.5C170.9 36.6 170.9 36.7 170.9 36.7L172.8 39.2Z" fill="#F2973D"/>
<path opacity="0.56" d="M182 32.9C180.5 32.9 179.2 31.8 179 30.3C178.8 28.7 179.9 27.1 181.5 26.9C183.1 26.7 184.7 27.8 184.9 29.4C185.1 31 184 32.6 182.4 32.8C182.3 32.9 182.1 32.9 182 32.9ZM182 27.6C181.9 27.6 181.8 27.6 181.7 27.6C180.5 27.8 179.6 28.9 179.8 30.2C180 31.4 181.1 32.3 182.4 32.1C183.6 31.9 184.5 30.8 184.3 29.5C184 28.4 183.1 27.6 182 27.6Z" fill="white"/>
<path opacity="0.56" d="M182 37.4C181.7 37.4 181.5 37.4 181.2 37.4C180.7 37.3 180.1 37.2 179.6 37.1C179.4 37 179.3 36.9 179.3 36.7V36.6C179.4 36.4 179.6 36.3 179.8 36.4C180.3 36.5 180.7 36.6 181.2 36.7C183.7 37 186.1 35.8 187.5 33.8C188.1 32.9 188.5 31.9 188.6 30.8C188.6 30.7 188.6 30.7 188.6 30.6C188.6 30.4 188.6 30.1 188.6 29.9C188.6 28.3 188.1 26.9 187.1 25.6C186 24.2 184.3 23.3 182.5 23.1C180.7 22.9 178.9 23.4 177.5 24.6C176.1 25.7 175.2 27.4 175 29.2C175 29.4 175 29.7 175 29.9C175 30.9 175.2 31.9 175.6 32.8C175.6 32.9 175.6 32.9 175.6 33C175.6 33.1 175.5 33.3 175.4 33.3C175.2 33.4 175 33.3 174.9 33.1C174.4 32.1 174.2 31 174.2 29.9C174.2 29.6 174.2 29.4 174.2 29.1C174.4 27.1 175.4 25.3 176.9 24C178.5 22.7 180.4 22.1 182.4 22.3C184.4 22.5 186.2 23.5 187.5 25C188.6 26.4 189.2 28 189.2 29.8C189.2 30.1 189.2 30.3 189.2 30.6C189.1 34.5 185.8 37.4 182 37.4Z" fill="white"/>
<path d="M120.9 45H0V130.8H120.9V45Z" fill="#BD3CC2"/>
<path d="M120.9 45H0V66.6H120.9V45Z" fill="#2E1D66"/>
<path d="M30 79.4H13.4C11.9 79.4 10.8 78.2 10.8 76.8C10.8 75.3 12 74.2 13.4 74.2H30C31.5 74.2 32.6 75.4 32.6 76.8C32.7 78.2 31.5 79.4 30 79.4Z" fill="#2E1D66"/>
<path d="M78.7 59.1H42.2C40.3 59.1 38.8 57.6 38.8 55.7C38.8 53.8 40.3 52.3 42.2 52.3H78.7C80.6 52.3 82.1 53.8 82.1 55.7C82.1 57.6 80.6 59.1 78.7 59.1Z" fill="white"/>
<path d="M108.4 104.5H69.1C68 104.5 67.1 103.6 67.1 102.5V76.1C67.1 75 68 74.1 69.1 74.1H108.5C109.6 74.1 110.5 75 110.5 76.1V102.6C110.4 103.6 109.5 104.5 108.4 104.5Z" fill="#EAD0F3"/>
<path d="M40.8 128.3H13.3C12.2 128.3 11.3 127.4 11.3 126.3V111.8C11.3 110.7 12.2 109.8 13.3 109.8H40.8C41.9 109.8 42.8 110.7 42.8 111.8V126.3C42.8 127.4 41.9 128.3 40.8 128.3Z" fill="#EAD0F3"/>
<path d="M74.6 128.3H47.1C46 128.3 45.1 127.4 45.1 126.3V111.8C45.1 110.7 46 109.8 47.1 109.8H74.6C75.7 109.8 76.6 110.7 76.6 111.8V126.3C76.6 127.4 75.7 128.3 74.6 128.3Z" fill="#EAD0F3"/>
<path d="M108.4 128.3H81C79.9 128.3 79 127.4 79 126.3V111.8C79 110.7 79.9 109.8 81 109.8H108.5C109.6 109.8 110.5 110.7 110.5 111.8V126.3C110.4 127.4 109.6 128.3 108.4 128.3Z" fill="#EAD0F3"/>
<path d="M57.5 86.5H13C12.1 86.5 11.3 85.7 11.3 84.8C11.3 83.9 12.1 83.1 13 83.1H57.5C58.4 83.1 59.2 83.9 59.2 84.8C59.1 85.8 58.4 86.5 57.5 86.5Z" fill="#EAD0F3"/>
<path opacity="0.49" d="M104.9 82.9H79.8C78.9 82.9 78.1 82.1 78.1 81.2C78.1 80.3 78.9 79.5 79.8 79.5H104.9C105.8 79.5 106.6 80.3 106.6 81.2C106.5 82.2 105.8 82.9 104.9 82.9Z" fill="#BD3CC2"/>
<path opacity="0.49" d="M104.9 91.3H79.8C78.9 91.3 78.1 90.5 78.1 89.6C78.1 88.7 78.9 87.9 79.8 87.9H104.9C105.8 87.9 106.6 88.7 106.6 89.6C106.5 90.5 105.8 91.3 104.9 91.3Z" fill="#BD3CC2"/>
<path opacity="0.49" d="M104.9 99.7H79.8C78.9 99.7 78.1 98.9 78.1 98C78.1 97.1 78.9 96.3 79.8 96.3H104.9C105.8 96.3 106.6 97.1 106.6 98C106.5 98.9 105.8 99.7 104.9 99.7Z" fill="#BD3CC2"/>
<path d="M57.5 93.6H13C12.1 93.6 11.3 92.8 11.3 91.9C11.3 91 12.1 90.2 13 90.2H57.5C58.4 90.2 59.2 91 59.2 91.9C59.1 92.9 58.4 93.6 57.5 93.6Z" fill="#EAD0F3"/>
<path d="M57.5 100.8H13C12.1 100.8 11.3 100 11.3 99.1C11.3 98.2 12.1 97.4 13 97.4H57.5C58.4 97.4 59.2 98.2 59.2 99.1C59.1 100 58.4 100.8 57.5 100.8Z" fill="#EAD0F3"/>
<path opacity="0.49" d="M29.1 117.6H15C14.1 117.6 13.3 116.8 13.3 115.9C13.3 115 14.1 114.2 15 114.2H29.1C30 114.2 30.8 115 30.8 115.9C30.7 116.8 30 117.6 29.1 117.6Z" fill="#BD3CC2"/>
<path opacity="0.49" d="M37.2 124.4H15C14.1 124.4 13.3 123.6 13.3 122.7C13.3 121.8 14.1 121 15 121H37.2C38.1 121 38.9 121.8 38.9 122.7C38.9 123.6 38.1 124.4 37.2 124.4Z" fill="#BD3CC2"/>
<path opacity="0.49" d="M63.9 117.6H49.8C48.9 117.6 48.1 116.8 48.1 115.9C48.1 115 48.9 114.2 49.8 114.2H63.9C64.8 114.2 65.6 115 65.6 115.9C65.5 116.8 64.8 117.6 63.9 117.6Z" fill="#BD3CC2"/>
<path opacity="0.49" d="M72 124.4H49.8C48.9 124.4 48.1 123.6 48.1 122.7C48.1 121.8 48.9 121 49.8 121H72C72.9 121 73.7 121.8 73.7 122.7C73.7 123.6 72.9 124.4 72 124.4Z" fill="#BD3CC2"/>
<path opacity="0.49" d="M98.3 117.6H84.2C83.3 117.6 82.5 116.8 82.5 115.9C82.5 115 83.3 114.2 84.2 114.2H98.3C99.2 114.2 100 115 100 115.9C100 116.8 99.2 117.6 98.3 117.6Z" fill="#BD3CC2"/>
<path opacity="0.49" d="M106.4 124.4H84.2C83.3 124.4 82.5 123.6 82.5 122.7C82.5 121.8 83.3 121 84.2 121H106.4C107.3 121 108.1 121.8 108.1 122.7C108.1 123.6 107.3 124.4 106.4 124.4Z" fill="#BD3CC2"/>
<path d="M73.6 83.2C74.6494 83.2 75.5 82.3494 75.5 81.3C75.5 80.2507 74.6494 79.4 73.6 79.4C72.5507 79.4 71.7 80.2507 71.7 81.3C71.7 82.3494 72.5507 83.2 73.6 83.2Z" stroke="#2E1D66" stroke-width="1.7297" stroke-miterlimit="10"/>
<path d="M73.6 91.5C74.6494 91.5 75.5 90.6494 75.5 89.6C75.5 88.5507 74.6494 87.7 73.6 87.7C72.5507 87.7 71.7 88.5507 71.7 89.6C71.7 90.6494 72.5507 91.5 73.6 91.5Z" stroke="#2E1D66" stroke-width="1.7297" stroke-miterlimit="10"/>
<path d="M73.6 99.8C74.6494 99.8 75.5 98.9493 75.5 97.9C75.5 96.8507 74.6494 96 73.6 96C72.5507 96 71.7 96.8507 71.7 97.9C71.7 98.9493 72.5507 99.8 73.6 99.8Z" stroke="#2E1D66" stroke-width="1.7297" stroke-miterlimit="10"/>
<path d="M125.5 104.5C129.532 104.5 132.8 102.754 132.8 100.6C132.8 98.4461 129.532 96.7 125.5 96.7C121.468 96.7 118.2 98.4461 118.2 100.6C118.2 102.754 121.468 104.5 125.5 104.5Z" fill="#851C85"/>
<path d="M135.2 93.6V97.6C135.2 98.9 134.4 100.2 133.2 100.7C131.5 101.5 128.7 102.4 124.7 102.3C121.4 102.2 119.3 101.7 117.9 101.1C116.6 100.6 115.7 99.3 115.7 97.8V95.6L135.2 93.6Z" fill="#851C85"/>
<path opacity="0.3" d="M135.2 97.1C134.9 97.4 134.6 97.6 134.2 97.8C132.3 98.7 120 100.7 117 99.6C116.6 99.5 116.3 99.3 116 99C115.9 98.6 115.8 98.2 115.8 97.8V95.6L135.3 93.6V97.1H135.2Z" fill="url(#paint0_linear_354_2340)"/>
<path d="M134.4 90.9C135.5 90.8 136.5 91.6 136.5 92.7V92.8C136.5 94.3 135.6 95.7 134.3 96.3C132.4 97.2 120.1 99.2 117.1 98.1C115.6 97.5 114.7 96.3 114.7 94.6V94.5C114.7 93.5 115.4 92.8 116.4 92.7L134.4 90.9Z" fill="#851C85"/>
<path opacity="0.3" d="M116.2 92.8L134.3 90.9C135 90.8 135.7 91.2 136 91.7C135.6 92.6 135 93.3 134.1 93.7C132.2 94.6 119.3 96.9 116.9 95.7C115.9 95.3 115.2 94.5 114.8 93.6C115.2 93.2 115.7 92.9 116.2 92.8Z" fill="url(#paint1_linear_354_2340)"/>
<path d="M135.1 84.5C135.8 84.5 136.4 85.1 136.4 85.8V89C136.4 90.5 135.5 91.9 134.2 92.5C132.3 93.4 119.4 95.7 117 94.5C115.6 93.8 114.6 92.4 114.6 90.8V85.8C114.6 85.1 115.2 84.5 115.9 84.5H135.1Z" fill="#851C85"/>
<path d="M114.8 85.5C114.8 86.9 119.6 88 125.5 88C131.4 88 136.2 86.9 136.2 85.5C136.2 84.1 131.4 83 125.5 83C119.6 83 114.8 84.1 114.8 85.5Z" fill="#2E1D66"/>
<path opacity="0.5" d="M125.5 85.3C129.808 85.3 133.3 84.4941 133.3 83.5C133.3 82.5059 129.808 81.7 125.5 81.7C121.192 81.7 117.7 82.5059 117.7 83.5C117.7 84.4941 121.192 85.3 125.5 85.3Z" fill="#F4F7FA"/>
<path d="M92.5 38.4C92.5 21 107.3 6.90002 125.5 6.90002C143.7 6.90002 158.5 21 158.5 38.4C158.5 48.9 153.1 58.3 144.7 64C141.2 66.4 139 70.4 139 74.7V77.1C139 82.3 134.8 86.6 129.5 86.6H121.4C116.2 86.6 111.9 82.4 111.9 77.1V74.7C111.9 70.4 109.7 66.4 106.2 64C97.9 58.3 92.5 48.9 92.5 38.4Z" fill="#EAD0F3"/>
<path d="M92.5 38.4C92.5 21 107.3 6.90002 125.5 6.90002C143.7 6.90002 158.5 21 158.5 38.4C158.5 48.9 153.1 58.3 144.7 64C141.2 66.4 139 70.4 139 74.7V77.1C139 82.3 134.8 86.6 129.5 86.6H121.4C116.2 86.6 111.9 82.4 111.9 77.1V74.7C111.9 70.4 109.7 66.4 106.2 64C97.9 58.3 92.5 48.9 92.5 38.4Z" fill="#EAD0F3"/>
<path opacity="0.3" d="M139.9 10.1C136.8 10.1 132.4 10.5 129.3 13.5C125.4 17.2 127.2 21.1 124.6 26.5C120.2 35.5 111.2 32.3 105 41.5C99.4 49.9 101.5 60.7 103.8 62.3C104 62.4 106.5 64.1 106.5 64.1L143 48.5L139.9 10.1Z" fill="url(#paint2_linear_354_2340)"/>
<path d="M125.5 68.5C142.952 68.5 157.1 55.0238 157.1 38.4001C157.1 21.7763 142.952 8.30005 125.5 8.30005C108.048 8.30005 93.9 21.7763 93.9 38.4001C93.9 55.0238 108.048 68.5 125.5 68.5Z" stroke="#2E1D66" stroke-width="1.7297" stroke-miterlimit="10"/>
<path d="M125.5 68.5C138.313 68.5 148.7 55.0238 148.7 38.4001C148.7 21.7763 138.313 8.30005 125.5 8.30005C112.687 8.30005 102.3 21.7763 102.3 38.4001C102.3 55.0238 112.687 68.5 125.5 68.5Z" stroke="#2E1D66" stroke-width="1.7297" stroke-miterlimit="10"/>
<path d="M125.5 68.5C131.907 68.5 137.1 55.0238 137.1 38.4001C137.1 21.7763 131.907 8.30005 125.5 8.30005C119.094 8.30005 113.9 21.7763 113.9 38.4001C113.9 55.0238 119.094 68.5 125.5 68.5Z" stroke="#2E1D66" stroke-width="1.7297" stroke-miterlimit="10"/>
<path d="M125.7 8.30005H125.4V68.6H125.7V8.30005Z" fill="#2E1D66"/>
<path d="M125.5 41.8C142.952 41.8 157.1 40.5912 157.1 39.1C157.1 37.6089 142.952 36.4 125.5 36.4C108.048 36.4 93.9 37.6089 93.9 39.1C93.9 40.5912 108.048 41.8 125.5 41.8Z" stroke="#2E1D66" stroke-width="1.7297" stroke-miterlimit="10"/>
<path d="M125.5 30.4C141.627 30.4 154.7 28.833 154.7 26.9C154.7 24.967 141.627 23.4 125.5 23.4C109.373 23.4 96.3 24.967 96.3 26.9C96.3 28.833 109.373 30.4 125.5 30.4Z" stroke="#2E1D66" stroke-width="1.7297" stroke-miterlimit="10"/>
<path d="M125.6 16.2C135.155 16.2 142.9 14.9912 142.9 13.5C142.9 12.0089 135.155 10.8 125.6 10.8C116.046 10.8 108.3 12.0089 108.3 13.5C108.3 14.9912 116.046 16.2 125.6 16.2Z" stroke="#2E1D66" stroke-width="1.7297" stroke-miterlimit="10"/>
<path d="M125.5 53.2001C141.627 53.2001 154.7 51.6331 154.7 49.7001C154.7 47.7671 141.627 46.2001 125.5 46.2001C109.373 46.2001 96.3 47.7671 96.3 49.7001C96.3 51.6331 109.373 53.2001 125.5 53.2001Z" stroke="#2E1D66" stroke-width="1.7297" stroke-miterlimit="10"/>
<path d="M125.6 65.8C135.155 65.8 142.9 64.5912 142.9 63.1C142.9 61.6089 135.155 60.4 125.6 60.4C116.046 60.4 108.3 61.6089 108.3 63.1C108.3 64.5912 116.046 65.8 125.6 65.8Z" stroke="#2E1D66" stroke-width="1.7297" stroke-miterlimit="10"/>
<path d="M140.7 10.5C140.7 12.7 140.5 14.6 140 16.1C137.2 26 128.4 25.9 121.2 38.9C115.6 49 118.4 53.6 112.7 60.1C111 62 109.1 63.5 107.1 64.6C110.1 67.1 112 70.7 112 74.7V77.1C112 82.3 116.2 86.6 121.5 86.6H129.6C134.8 86.6 139.1 82.4 139.1 77.1V74.7C139.1 70.4 141.3 66.4 144.8 64C153.2 58.3 158.6 49 158.6 38.4C158.5 26.2 151.3 15.7 140.7 10.5Z" fill="#FBC922"/>
<path d="M133.3 39.1C133.1 39.1 132.8 39.2 132.8 39.5L127.1 84.1C127.1 84.3 127.2 84.6 127.5 84.6C127.5 84.6 127.5 84.6 127.6 84.6C127.8 84.6 128 84.4 128 84.2L133.7 39.6C133.7 39.4 133.6 39.2 133.3 39.1Z" fill="url(#paint3_linear_354_2340)"/>
<path d="M123.5 84.2C123.5 84.4 123.7 84.6 123.9 84.6C123.9 84.6 123.9 84.6 124 84.6C124.2 84.6 124.4 84.3 124.4 84.1L119.2 43.3C118.9 43.9 118.7 44.6 118.5 45.2L123.5 84.2Z" fill="url(#paint4_linear_354_2340)"/>
<path d="M122.4 38.8C122.6 39.1 122.9 39.3 123.2 39.3C123.5 39.3 123.8 39.1 124 38.9L125.4 36.7C125.4 36.7 125.4 36.7 125.5 36.7C125.5 36.7 125.5 36.7 125.6 36.7L126.9 38.5C127.1 38.8 127.4 38.9 127.7 38.9C128 38.9 128.3 38.7 128.5 38.5L130.3 35.9C130.3 35.9 130.3 35.9 130.4 35.9C130.4 35.9 130.4 35.9 130.5 35.9L132.2 38.8C132.3 39 132.6 39.1 132.8 39C133 38.9 133.1 38.6 133 38.4L131.3 35.5C131.1 35.2 130.8 35 130.5 35C130.2 35 129.9 35.1 129.7 35.4L127.9 38C127.9 38 127.9 38 127.8 38C127.8 38 127.8 38 127.7 38L126.4 36.2C126.2 35.9 125.9 35.8 125.6 35.8C125.3 35.8 125 36 124.8 36.2L123.4 38.4C123.4 38.4 123.4 38.4 123.3 38.4H123.2L122.4 37.1C122.2 37.4 122 37.7 121.9 38L122.4 38.8Z" fill="url(#paint5_linear_354_2340)"/>
<path d="M138.5 66.9C138.5 66.9 141.5 72.4 147.1 71.1C152.7 69.8 152.3 62.6 152.3 62.6C152.3 62.6 152.3 58.1 155.4 57.8C155.4 57.8 160.1 70.8 149.6 74.1C143.8 75.9 138.5 69.4 138.5 69.4V66.9Z" fill="url(#paint6_linear_354_2340)"/>
<path d="M157.5 42.9C157.5 42.9 159.8 43.3 160.4 44.3C160.9 45.1 163.2 44.6 163.9 46.3C164.3 47.2 165.1 47.7 166.1 47.6C168.4 47.3 172.2 47.5 173.9 51.3C175.1 54.2 173.9 55.7 172.4 56.6C171.3 57.2 170.8 58.6 171.4 59.7C171.9 60.8 172 62.2 170.3 63.8C166.5 67.3 160 60.7 160 60.7L155.3 47.2L157.5 42.9Z" fill="#241F3F"/>
<path d="M179 131.2L179.3 133.6C179.4 134.1 179.7 134.4 180.2 134.5C181 134.6 182.2 134.7 183.5 134.6C184 134.5 184.4 134 184.2 133.5C183.9 132.6 183.4 131.1 182.6 130.3H179.9C179.3 130.3 178.9 130.7 179 131.2Z" fill="#03A6A0"/>
<path d="M157.8 102.7L157.3 105.4C157.3 105.4 158.8 120.9 159.1 127.1C159.1 128.1 158.9 129 158.4 129.9L155.7 134.2L162.4 130.2L162.5 129.4L161.4 127.9L162.8 110.6C162.9 109.6 162.7 108.6 162.2 107.7L160.8 105.1L157.8 102.7Z" fill="#B2563D"/>
<path d="M155.4 134.7H157.6C158 134.7 158.4 134.5 158.6 134.2C159.3 133.3 160.7 131.6 161.3 131.6C162.2 131.5 162.1 134.7 162.1 134.7H162.6L163.2 130.7C163.4 129.7 162.9 128.7 162 128.3C162 128.3 161.8 129.8 160.7 130.5C159.6 131.2 156.2 133.6 156.2 133.6C156.2 133.6 155.8 133.5 155.3 133.6C154.6 133.7 154.7 134.7 155.4 134.7Z" fill="#03A6A0"/>
<path d="M167.1 103.9C167.1 103.9 176 120.9 177.5 124.7C178.9 128.6 179.4 131.8 179.4 132.1C179.4 132.6 180 133 181.7 133C182.5 133 183 132.7 183.2 132.3C183.4 132 183.4 131.7 183.2 131.4C182.7 130.4 181 127 180.4 125.5C179.7 123.7 178.1 115.5 177.3 112.6C176.4 109.7 175.5 106.6 171.7 103.8C171.7 103.9 169.1 101.4 167.1 103.9Z" fill="#B2563D"/>
<path d="M161.4 76.1C159.1 66.3 164.9 60.8 164.9 60.8C163.5 56.9 154.1 56.9 154.1 56.9C154.1 56.9 148.3 62.3 149 66C149.4 68.2 153.3 76.9 153.3 76.9C153.3 76.9 157.2 78.7 161.4 76.1Z" fill="#BD3CC2"/>
<path d="M166.5 81C165.6 78.2 161.4 76.2 161.4 76.2C157.1 78.8 153.4 77 153.4 77C153.4 77 152.6 80.2 153.1 83.2C153.7 86.2 157.3 105.4 157.3 105.4C163 106.6 171.9 104.2 171.9 104.2C168.3 97.7 167.5 83.8 166.5 81Z" fill="#2E1D66"/>
<path d="M158.7 49.2L160.6 57.6C160.8 58.3 160.1 58.2 159.4 58.1C158.2 57.9 156.6 58.4 156.1 57.4C156 57.3 156 57.2 156 57.1L155.2 50.2C155.1 49.7 155.4 49.3 155.8 49.1L157.4 48.4C157.9 48.3 158.6 48.6 158.7 49.2Z" fill="#93402C"/>
<path d="M151.9 44.7C151.9 44.7 150.7 46.8 151.4 50.3C152.1 53.8 153.9 54.3 155.1 53.6C156.4 52.9 158 51.6 158.6 48.6C159.2 45.7 153.6 42.1 151.9 44.7Z" fill="#B2563D"/>
<path d="M156.4 48.2C156.4 48.2 155 43.4 151.6 45.8L151.2 46.9C151.2 46.9 148.4 45.7 149.7 43.2C151 40.7 154 39.8 156.8 41.9C159.7 44 161.2 45.7 160.7 48.1C160.2 50.5 158.6 49.4 158.6 49.4C158.6 49.4 158.5 47.6 157.7 47.2C156.9 46.8 156.8 48.1 156.8 48.1L156.4 48.2Z" fill="#241F3F"/>
<path d="M157.1 48.3C157.1 48.3 156.3 45.8 157.8 46C159.3 46.1 158.4 48.3 158 49.2L157.1 48.3Z" fill="#B2563D"/>
<path d="M149.3 75.7L145.8 63.4C145.8 63.3 145.6 63.2 145.5 63.1C144.9 63 143 62.8 140.9 62.6C138.3 62.4 135.3 62.2 133.5 62.4C133.2 62.4 133.1 62.7 133.2 62.9C134.2 65 138.4 73.3 140.5 76.1C140.6 76.2 140.7 76.2 140.8 76.2L149 76.1C149.2 76.2 149.4 76 149.3 75.7Z" fill="#FF5252"/>
<path d="M140.5 61.6L137.9 61.2C137.8 61.2 137.7 61.3 137.7 61.4L138 62.2C138 62.3 138.1 62.3 138.2 62.3L140.7 62.6C140.8 62.6 140.9 62.5 140.9 62.4L140.7 61.7C140.6 61.7 140.6 61.6 140.5 61.6Z" fill="#2E1D66"/>
<path d="M142.4 63.8L142.2 62.7C142.2 62.6 142.1 62.5 142 62.5L136.8 62C136.6 62 136.5 62.1 136.5 62.3L136.8 63.7C136.8 63.8 136.9 63.9 137 63.9L142.1 64.2C142.3 64.1 142.4 63.9 142.4 63.8Z" fill="#2E1D66"/>
<path d="M148.5 72.8C148.5 72.8 149 70.8 148.8 70.1C148.6 69.4 148.2 68.5 146.9 68.7C145.6 68.9 144.1 69.4 144.1 69.4C144.1 69.4 144.2 70.3 145.2 70L144.6 70.5C144.6 70.5 144.7 71.2 145.5 70.8L144.9 71.4C144.9 71.4 145.3 72 145.9 71.6C146.5 71.2 146.7 73 148.5 72.8Z" fill="#B2563D"/>
<path d="M148.2 69.9C148.2 69.9 151.2 75.4 156.8 74.1C162.3 72.7 162 65.6 162 65.6C162 65.6 162 61.1 165.1 60.8C165.1 60.8 169.8 73.8 159.3 77.1C153.5 78.9 148.2 72.4 148.2 72.4V69.9Z" fill="#B2563D"/>
</g>
<defs>
<linearGradient id="paint0_linear_354_2340" x1="135.227" y1="96.7919" x2="115.755" y2="96.7919" gradientUnits="userSpaceOnUse">
<stop offset="0.003597" stop-color="#26264F"/>
<stop offset="1" stop-color="#444B8C"/>
</linearGradient>
<linearGradient id="paint1_linear_354_2340" x1="136.1" y1="93.5101" x2="114.893" y2="93.5101" gradientUnits="userSpaceOnUse">
<stop offset="0.003597" stop-color="#26264F"/>
<stop offset="1" stop-color="#444B8C"/>
</linearGradient>
<linearGradient id="paint2_linear_354_2340" x1="142.992" y1="37.1144" x2="101.482" y2="37.1144" gradientUnits="userSpaceOnUse">
<stop stop-color="#FCB148"/>
<stop offset="0.0520724" stop-color="#FDBA46"/>
<stop offset="0.1424" stop-color="#FFC244"/>
<stop offset="0.3183" stop-color="#FFC444"/>
<stop offset="0.4849" stop-color="#FDB946"/>
<stop offset="0.7754" stop-color="#F99C4D"/>
<stop offset="0.8658" stop-color="#F8924F"/>
<stop offset="1" stop-color="#F8924F"/>
</linearGradient>
<linearGradient id="paint3_linear_354_2340" x1="137.962" y1="84.0065" x2="129.259" y2="58.5833" gradientUnits="userSpaceOnUse">
<stop offset="0.494" stop-color="#EBEFF2"/>
<stop offset="1" stop-color="white"/>
</linearGradient>
<linearGradient id="paint4_linear_354_2340" x1="129.274" y1="86.9802" x2="120.572" y2="61.557" gradientUnits="userSpaceOnUse">
<stop offset="0.494" stop-color="#EBEFF2"/>
<stop offset="1" stop-color="white"/>
</linearGradient>
<linearGradient id="paint5_linear_354_2340" x1="142.56" y1="82.4326" x2="133.858" y2="57.0093" gradientUnits="userSpaceOnUse">
<stop offset="0.494" stop-color="#EBEFF2"/>
<stop offset="1" stop-color="white"/>
</linearGradient>
<linearGradient id="paint6_linear_354_2340" x1="146.991" y1="63.6498" x2="148.238" y2="67.1829" gradientUnits="userSpaceOnUse">
<stop stop-color="#C4421B"/>
<stop offset="1" stop-color="#5C0E16"/>
</linearGradient>
<clipPath id="clip0_354_2340">
<rect width="213.2" height="134.7" fill="white"/>
</clipPath>
</defs>
</svg>
