<svg width="226" height="142" viewBox="0 0 226 142" fill="none" xmlns="http://www.w3.org/2000/svg">
<path d="M138 108.1H107.3V131.5H138V108.1Z" fill="#00578A"/>
<path d="M138.1 108.1V116.3C125.3 113.6 113.8 115 107.4 116.2V108.1H138.1Z" fill="#004A75"/>
<path d="M194 22.5V111.1H51.5V22.5C51.5 18 55.4 14.4 60.3 14.4H185.2C190 14.4 194 18 194 22.5Z" fill="#00578A"/>
<path d="M148.3 132H97.2C96.1 132 95.2 131.1 95.2 130C95.2 128.9 96.1 128 97.2 128H148.3C149.4 128 150.3 128.9 150.3 130V130.1C150.2 131.2 149.4 132 148.3 132Z" fill="#00578A"/>
<path d="M123.913 105.024C126.133 104.352 127.388 102.007 126.716 99.787C126.044 97.5669 123.699 96.3121 121.479 96.9843C119.259 97.6565 118.004 100.001 118.676 102.221C119.348 104.441 121.693 105.696 123.913 105.024Z" fill="#0090E3"/>
<path d="M126.8 24.9C126.1 24.9 125.5 25.3 125.1 25.9C124.6 26.6 123.8 27.1 122.7 27.1C121.6 27.1 120.8 26.6 120.3 25.9C119.9 25.3 119.3 24.9 118.6 24.9H57.9C56.8 24.9 55.9 25.8 55.9 26.9V91.5C55.9 92.6 56.8 93.5 57.9 93.5H187.5C188.6 93.5 189.5 92.6 189.5 91.5V26.9C189.5 25.8 188.6 24.9 187.5 24.9H126.8Z" fill="#F2973D"/>
<path d="M132.6 27.2C132.1 27.2 131.7 27.2 131.2 27.2C124.8 27.5 122.7 32.1 122.7 32.2C122.7 32.2 122.7 32.1 122.6 32C122.1 31.1 119.9 27.4 114.2 27.2C113.9 27.2 113.5 27.2 113.2 27.2C113.1 27.2 113 27.2 112.9 27.2L63 21.7L59.3 27.2V89.1H186.2V27.2L182.5 21.7L132.6 27.2Z" fill="#ABE9FF"/>
<path d="M113.4 21.7H63V80H113.4C113.4 80 120.2 79.5 122.7 84.3V26.4C122.7 26.4 120.6 21.3 113.4 21.7Z" fill="#EEEEEE"/>
<path d="M132 21.7H182.4V80H132C132 80 125.2 79.5 122.7 84.3V26.4C122.7 26.4 124.9 21.3 132 21.7Z" fill="white"/>
<path d="M122.7 85V26.4C122.7 26.4 124.9 21.3 132 21.7V80.7C132 80.7 125.5 80 122.7 85Z" fill="#ABE9FF"/>
<path d="M122.7 84.2V26.4C122.7 26.4 120.5 21.3 113.4 21.7V80C113.4 79.9 119.9 79.3 122.7 84.2Z" fill="white"/>
<path d="M59.2 89.1L63 79.9V21.7L59.2 27.2V89.1Z" fill="#ABE9FF"/>
<path d="M186.2 89.1L182.4 79.9V21.7L186.2 27.2V89.1Z" fill="#ABE9FF"/>
<path d="M176.5 35.9H136.4V37.1H176.5V35.9Z" fill="#AAEAFF"/>
<path d="M176.5 50.9H136.4V52.1H176.5V50.9Z" fill="#AAEAFF"/>
<path d="M176.5 55.9H136.4V57.1H176.5V55.9Z" fill="#AAEAFF"/>
<path d="M157.7 60.9H136.4V62.1H157.7V60.9Z" fill="#AAEAFF"/>
<path d="M157.7 65.9H136.4V67.1H157.7V65.9Z" fill="#AAEAFF"/>
<path d="M157.7 70.9H136.4V72.1H157.7V70.9Z" fill="#AAEAFF"/>
<path d="M97.4 32.1H80.4C79.5 32.1 78.8 31.4 78.8 30.5C78.8 29.6 79.5 28.9 80.4 28.9H97.5C98.4 28.9 99.1 29.6 99.1 30.5C99 31.4 98.3 32.1 97.4 32.1Z" fill="#F2973D"/>
<path d="M108.9 35.9H89.4V37.1H108.9V35.9Z" fill="#AAEAFF"/>
<path d="M108.9 40.9H89.4V42.1H108.9V40.9Z" fill="#AAEAFF"/>
<path d="M108.9 45.9H89.4V47.1H108.9V45.9Z" fill="#AAEAFF"/>
<path d="M108.9 50.9H89.4V52.1H108.9V50.9Z" fill="#AAEAFF"/>
<path d="M109 55.9H68.9V57.1H109V55.9Z" fill="#AAEAFF"/>
<path d="M109 60.9H68.9V62.1H109V60.9Z" fill="#AAEAFF"/>
<path d="M109 65.9H68.9V67.1H109V65.9Z" fill="#AAEAFF"/>
<path d="M109 70.9H68.9V72.1H109V70.9Z" fill="#AAEAFF"/>
<path d="M86.2 35.9H68.8V52H86.2V35.9Z" fill="#F9553A"/>
<path d="M158.3 32.6H137.9C137.1 32.6 136.4 31.9 136.4 31.1C136.4 30.3 137.1 29.6 137.9 29.6H158.3C159.1 29.6 159.8 30.3 159.8 31.1C159.8 31.9 159.1 32.6 158.3 32.6Z" fill="#FBC922"/>
<path d="M174.5 47.4H138.4C137.3 47.4 136.4 46.5 136.4 45.4V42.9C136.4 41.8 137.3 40.9 138.4 40.9H174.5C175.6 40.9 176.5 41.8 176.5 42.9V45.4C176.5 46.5 175.6 47.4 174.5 47.4Z" fill="#F2973D"/>
<path d="M176.6 60.9H161.5V72.2H176.6V60.9Z" fill="#EAD0F3"/>
<path d="M196.3 49.9C197.018 49.9 197.6 49.318 197.6 48.6C197.6 47.882 197.018 47.3 196.3 47.3C195.582 47.3 195 47.882 195 48.6C195 49.318 195.582 49.9 196.3 49.9Z" fill="white"/>
<path d="M187.1 79.9C187.1 79.9 189.8 121.1 191.8 130.9L193.6 131C193.6 131 198.4 85.3 196.3 81C194.1 76.6 187.1 79.9 187.1 79.9Z" fill="#007BC4"/>
<path d="M191.1 81.4C191.1 81.4 194.2 115.5 199.1 130.6L200.7 130.7C200.7 130.7 205 81.2 204.1 81.4C196 82.6 191.1 81.4 191.1 81.4Z" fill="#0090E3"/>
<path d="M200.7 130.6H200.3C200.3 130.2 202.9 86.6 201.5 83.5L201.9 83.3C203.2 86.5 200.8 128.8 200.7 130.6Z" fill="#2E1D66"/>
<path d="M168.8 71.1C169.6 71.9 170.3 72.3 171.3 72.3C172 72.3 172.8 72.3 173.6 72.3C174.9 72.3 176.1 72.4 177.2 72.8C179.1 73.4 180.6 74 182.3 72.8C183.9 71.7 185.2 69.8 186.3 68.1C187 67 187.9 65.8 188.5 64.5C188.8 63.8 189.1 63.1 189.3 62.5C189.7 60.7 188.2 59.1 185.1 58.6C184.3 60.3 183.4 62 182.7 63.8C182.4 64.5 182.1 65.3 181.8 66C181.6 66.5 180.4 68.1 180.1 68.4C179.4 69.1 175.6 69.7 174.4 69.7C172.3 69.7 171.5 68.9 169.6 69.8C168.8 70.1 167.9 70.2 168.8 71.1Z" fill="#FFAAAB"/>
<path d="M173.6 72.3C174.9 72.3 176.1 72.4 177.2 72.8C179.1 73.4 180.6 74 182.3 72.8C183.9 71.7 185.2 69.8 186.3 68.1C187 67 187.9 65.8 188.5 64.5L185.2 59.3C185.2 59.3 184.6 63.7 184.5 65.1C184.4 66.5 182.7 70.8 181.3 70.8C179.9 70.8 179.1 71.3 177.1 71C175.1 70.8 173.7 71.3 173.7 71.3C173.7 71.3 173.7 72 173.3 72.2C173.1 72.2 173.3 72.2 173.6 72.3Z" fill="#FF9092"/>
<path d="M204.6 83C203.6 83.7 197.8 84 195.9 84.1C195.5 84.1 195.3 84.1 195.3 84.1L199.8 75.6L201.6 72.1L202.4 70.5L202.8 69.7L203.4 68.5L203.5 68.4L203.7 71.8L204.4 82L204.6 83Z" fill="#F2973D"/>
<path d="M196.1 51C197.4 50.9 198.1 51.7 199.3 52.2C200.5 52.7 202.4 54 203.4 54.8C204.3 55.6 204.9 56.7 205.4 57.8C205.8 59 206.1 60.2 206.2 61.4C206.2 61.6 206.2 61.9 206.1 62.1C206 62.3 205.9 62.4 205.7 62.5C204 63.6 201.9 63.9 200 63.4C200.5 65.3 202.1 66.5 202.6 68.4C202.9 69.7 202.1 71.6 202 72.9C201.9 73.7 201.7 74.5 201.5 75.2C200.7 77.9 199.9 80.6 199.1 83.3C195.3 84.8 191.1 83.7 187.2 82.7C187 82.7 186.9 82.6 186.7 82.5C186.6 82.4 186.6 82.2 186.6 82C186.6 81.6 186.6 81.1 186.6 80.7C186.8 76.3 186.8 72 186.9 67.5C186.9 67.1 186.9 66.6 187 66.2C187 65.9 187 65.6 187 65.3C187 65 187 64.8 186.9 64.5C186.8 63.9 186.7 63.3 186.7 62.8C186.6 62.4 186.6 62.1 186.5 61.7C186.4 61.2 186.1 60.6 186 60.1C185.9 59.6 185.8 59 185.9 58.5C185.9 57.5 186.2 56.6 186.6 55.7C187.3 54.3 188.6 53.2 190 52.6C190.8 52.3 191.7 52.2 192.5 52C193.1 51.8 193.8 51.6 194.4 51.4C194.7 51.3 195 51.2 195.3 51.1C195.5 50.9 195.8 51 196.1 51Z" fill="#03CDFD"/>
<path d="M192 54.2C192 55 191.8 55.9 192.4 56.4C192.7 56.7 193.2 56.7 193.6 56.5C194 56.4 194.3 56.1 194.6 55.8C195.9 54.6 197.1 53.1 197.1 51.3C197.1 50.1 196.4 47.2 196.6 46.2L195.3 45.6L195 45.5L191.7 50.7C192.1 51.5 192 53 191.9 54C192 54.1 192 54.1 192 54.2Z" fill="#FFAAAB"/>
<path d="M192 54C197.9 51.8 195.8 46.8 195.8 46.8C195.7 46.3 195.6 45.9 195.4 45.7L195.1 45.6L191.8 50.8C192.2 51.5 192.1 53 192 54Z" fill="#FF9092"/>
<path d="M189.1 46.4C189.2 47.2 189.5 47.9 190.1 48.4C191 49.1 192.4 49 193.2 48.3C193.7 47.8 193.9 47.2 194.2 46.6C194.4 45.9 194.7 45.1 194.7 44.3C194.8 43.7 194.7 43 194.6 42.4H194.4L189.5 42.7C189.4 43.2 189.4 43.7 189.3 44.2C189.3 44.5 189.2 44.8 189.2 45.1C189 45.5 189 45.9 189.1 46.4Z" fill="#FFAAAB"/>
<path d="M189.1 45C189.7 45 190.3 44.9 191.1 44.6C193.1 43.8 194.7 44.2 194.7 44.2L194.3 42.3L189.4 42.6C189.3 43.1 189.3 43.6 189.2 44.1C189.1 44.4 189.1 44.7 189.1 45Z" fill="#FF9092"/>
<path d="M195.3 45.1C195.6 44.2 194.9 43.2 194 42.9C193.1 42.6 192.1 42.7 191.2 42.8C189.7 42.9 188.1 42.6 187.2 41.4C186.5 40.4 186.7 39 187.5 38.1C188.3 37.2 189.6 36.9 190.8 37.3C191.8 37.7 192.6 38.6 193.6 39.1C194.1 39.4 194.7 39.5 195.3 39.5C195.8 39.5 196.4 39.4 196.9 39.5C198.3 39.7 199.2 41.6 198.5 42.8C198.2 43.3 197.8 43.6 197.6 44.1C197.3 44.8 197.7 45.6 197.8 46.4C197.9 47.2 197.6 48.2 196.8 48.2C196.4 48.2 195.9 47.9 195.7 47.5C195.5 47.1 195.5 46.6 195.4 46.2C195.4 45.7 195.3 45.3 195.3 44.8V45.1Z" fill="#1F1440"/>
<path d="M197.9 40.9C198.6 40.5 198.9 39.6 198.6 38.9C198.5 38.7 198.2 38.9 198.3 39.1C198.5 39.7 198.3 40.4 197.7 40.7C197.5 40.7 197.7 41.1 197.9 40.9Z" fill="#1F1440"/>
<path d="M198.3 40.9C198.6 40.7 199 40.6 199.4 40.8C199.6 40.9 199.8 40.6 199.6 40.5C199.1 40.2 198.5 40.3 198.1 40.6C197.9 40.8 198.1 41 198.3 40.9Z" fill="#1F1440"/>
<path d="M194.2 42.4C194.4 43.4 194.5 44.4 194.4 45.3C194.3 46.3 193.8 47.2 192.9 47.7C192.8 47.7 192.8 47.8 192.7 47.7C192.6 47.7 192.6 47.6 192.5 47.5C192.2 46.9 191.9 46.3 191.2 46.1C190.5 45.9 189.7 46.5 189.5 47.2C189.3 47.9 189.4 48.7 189.5 49.5C189.6 50.1 189.7 50.6 190.1 51C190.8 51.7 191.9 51.4 192.8 51.1C193.1 51 193.4 50.9 193.7 50.7C194.2 50.3 194.4 49.6 194.6 49C195.2 47.2 195.8 45.2 195.3 43.4L194.2 42.4Z" fill="#1F1440"/>
<path d="M195.3 44.8C195.4 44.5 195.8 44.3 196.2 44.4C196.5 44.6 196.7 45 196.5 45.3C196.4 45.6 196 45.8 195.6 45.8C195.5 45.8 195.3 45.8 195.2 45.8L195.3 44.8Z" fill="#FFAAAB"/>
<path d="M190.5 47.7L191.6 47.6C191.7 47.6 191.8 47.7 191.8 47.8C191.8 48.3 191.7 49.5 190.4 48C190.3 47.9 190.3 47.8 190.5 47.7Z" fill="#FFAAAB"/>
<path d="M191.8 130.9V131.4C191.8 131.9 191.5 132.2 191.2 132.3L186.1 132.9C185.9 132.9 185.7 133 185.6 133.2C185.3 133.5 185.5 134.1 185.8 134.1L193.5 134.2C193.7 134.2 193.9 134 193.8 133.7L193.6 131L191.8 130.9Z" fill="#1F1440"/>
<path d="M199.1 130.6L198.1 133.2C197.9 133.8 198.3 134.4 198.9 134.4H201.3C201.9 134.4 202.4 133.7 202.1 133.1L200.9 130.6H199.1Z" fill="#1F1440"/>
<path d="M204.5 82.1C204.2 82.2 204 82.2 203.7 82.2C202.3 81.9 201.5 80.8 201.2 79.4C201 78.7 201.1 78 200.8 77.4C199.7 74 196.1 75.5 193.5 75.3C192.2 75.2 192.1 74.7 192.1 73.5C197 72.7 199.9 72.3 201.6 72.1C201.8 72.1 201.9 72.1 202.1 72C202.9 71.9 203.4 71.9 203.8 71.8L204.5 82.1Z" fill="#0680F1"/>
<path d="M190.1 37.2C188.9 37.3 187.5 37.5 186.7 38.4C185.9 39.3 185.9 40.8 186.5 41.8C187.1 42.8 188.4 43.4 189.5 43.5C191.6 43.8 193.3 42.2 195.3 43.6C195.5 43.7 195.7 43.4 195.5 43.3C193.4 41.8 191.4 43.6 189.2 43.1C187.8 42.7 186.6 42 186.5 40.4C186.3 38.2 188.4 37.5 190.2 37.4C190.3 37.5 190.3 37.2 190.1 37.2Z" fill="#1F1440"/>
<path d="M189.8 50.3C190.2 52.1 192.2 52.4 193.6 51.6C195.6 50.5 195.4 48 195.2 46C195.2 45.8 194.8 45.9 194.9 46.1C195.1 47.5 195.3 49.5 194.3 50.7C193.2 52 190.6 52.4 190.1 50.3C190.1 50 189.8 50.1 189.8 50.3Z" fill="#1F1440"/>
<path d="M204.5 83.1C201.4 85.3 197.2 85.7 193.5 85.5C191.3 85.4 187 84.7 186.6 81.9C186.6 81.6 187 81.4 187.1 81.8C187.3 83.2 188.7 83.8 189.8 84.3C191.4 84.9 193 85.1 194.7 85.1C197.9 85.1 201.6 84.7 204.3 82.7C204.5 82.5 204.8 82.9 204.5 83.1Z" fill="#0680F1"/>
<path d="M188.3 37.9C187.5 38.5 187.3 39.4 187.7 40.3C188.2 41.3 189.2 41.7 190.3 41.7C190.4 41.7 190.4 41.5 190.3 41.5C189.4 41.5 188.5 41.2 188 40.4C187.5 39.6 187.6 38.5 188.4 37.9C188.5 37.9 188.4 37.8 188.3 37.9Z" fill="#372D5E"/>
<path d="M188.2 38.7C188.1 39.2 188.1 39.7 188.4 40.2C188.6 40.6 189 40.7 189.4 40.8C189.5 40.8 189.5 40.6 189.4 40.6C188.9 40.5 188.6 40.3 188.4 39.9C188.3 39.5 188.3 39.1 188.4 38.8C188.3 38.6 188.2 38.6 188.2 38.7Z" fill="#372D5E"/>
<path d="M199.8 82.7C199.6 83.6 199.8 84.6 200.2 85.4C200.6 86.2 201.3 86.8 202.1 87.2L203.8 88C205.6 88.8 207.7 88.3 208.8 86.8C209 86.5 209.2 86.2 209.3 85.9C210.3 83.8 209.4 81.3 207.3 80.3L205.6 79.5C203.5 78.5 201 79.4 200 81.5C200 82 199.9 82.4 199.8 82.7Z" fill="#5652E5"/>
<path d="M196.9 81.3C196.6 83 197.3 84.7 198.7 85.6C198.9 85.7 199 85.8 199.2 85.9L200.9 86.7C202.7 87.5 204.7 87 205.9 85.6C206.1 85.3 206.3 85 206.5 84.7C207.5 82.6 206.6 80.1 204.5 79.1L202.8 78.3C202.6 78.2 202.4 78.1 202.2 78.1C200.2 77.5 198.1 78.4 197.2 80.3C197 80.6 196.9 81 196.9 81.3Z" fill="#F2973D"/>
<path d="M200.3 85.4C200.7 86.2 201.4 86.8 202.2 87.2L203.9 88C205.7 88.8 207.8 88.3 208.9 86.8L205.9 85.5L200.3 85.4Z" fill="#2C2C75"/>
<path d="M158.5 66.8L162 59.3L151.7 57.4L148.3 56.8C147.6 56.7 147.2 57.6 147.7 58L150.4 60.2L158.5 66.8Z" fill="white"/>
<path d="M156.3 62.4C156 64.2 156.9 66.1 158.6 66.9L198.6 85.6L201.1 86.8L202.4 84L204.6 79.3L202.1 78.1L162.1 59.4C160 58.4 157.5 59.3 156.6 61.4C156.5 61.7 156.4 62 156.3 62.4Z" fill="#F2973D"/>
<path d="M156.3 62.4C156 64.2 156.9 66.1 158.6 66.9L198.6 85.6C198.8 85.7 198.9 85.8 199.1 85.9L200.8 86.7C202.6 87.5 204.6 87 205.8 85.6L202.4 84L196.7 81.4L156.3 62.4Z" fill="#F9553A"/>
<path d="M196.7 75.5L200.9 77.5C203 78.5 203.9 80.9 202.9 83C201.9 85.1 199.5 86 197.4 85L193.2 83C195.3 84 197.8 83.1 198.7 81C199.7 79 198.8 76.5 196.7 75.5L195.2 74.8L196.7 75.5Z" fill="white"/>
<path d="M147.7 57.9L150.4 60.1C150.4 59.6 150.5 59.1 150.7 58.6C150.9 58.1 151.3 57.7 151.7 57.3L148.3 56.7C148 56.6 147.7 56.8 147.6 57C147.4 57.2 147.4 57.6 147.7 57.9Z" fill="#5652E5"/>
<path d="M147.7 57.9L150.4 60.1C150.4 59.6 150.5 59.1 150.7 58.6L147.6 56.9C147.4 57.2 147.4 57.6 147.7 57.9Z" fill="#2C2C75"/>
<path d="M199.1 60.1C198.7 60.1 198.3 60.1 198 60C197.8 60 197.8 60.3 198 60.3C198.4 60.3 198.8 60.3 199.1 60.4C199.3 60.4 199.3 60.1 199.1 60.1Z" fill="white"/>
<path d="M181.9 74.1C182.5 74.6 183.3 75 184.1 75.2C185.9 75.6 187.8 75 189.7 74.5C191 74.1 192.3 73.8 193.7 73.7C194.7 73.7 195.8 73.8 196.8 73.8C200 74 203.3 73.6 206.4 72.5C206.8 72.4 207.3 72.2 207.6 71.9C208.5 71.1 208.3 69.6 208 68.5C207.3 65.9 207 63.4 205.7 61L202.3 62.2L200.9 62.7L200.4 62.9C200.1 62.9 199.9 63 199.7 63.1C199.7 63.2 199.8 63.3 199.8 63.3C200.5 64.8 200.3 64.7 201.2 66.3C201.4 66.6 201.6 67 201.5 67.4C201.4 67.9 200.8 68.2 200.3 68.3C199.2 68.7 198 69.2 196.8 69.6C194.9 70.3 193 71 191 71.1C190.8 71.1 190.7 71.1 190.5 71.1C188.9 71.1 187.3 70.9 185.8 71.3C185.5 71.4 185.5 71.8 185.7 71.9C186 72 186.4 72.2 186.7 72.3C187 72.4 186.9 72.8 186.6 72.8C185.1 72.8 183.6 72.9 182.1 73C181.7 73.4 181.6 73.9 181.9 74.1Z" fill="#FFAAAB"/>
<path d="M190.5 71.4C191.8 71.5 193.2 71.5 194.6 71.3C197.7 70.7 198.9 69.5 201.3 69.6C203.7 69.7 204.5 68.7 203.6 67.5C202.8 66.5 202.4 63.4 202.3 62.4L200.9 62.9L199.8 63.6C200.5 65.1 200.3 65 201.2 66.6C201.4 66.9 201.6 67.3 201.5 67.7C201.4 68.2 200.8 68.5 200.3 68.6C199.2 69 198 69.5 196.8 69.9C194.9 70.6 193 71.3 191 71.4C190.8 71.4 190.7 71.4 190.5 71.4Z" fill="#FF9092"/>
<path d="M198.5 60.6C198.6 61.3 198.7 62.7 199.3 63.2C199.8 63.6 200.8 63.5 201.4 63.5C203.3 63.4 205.1 62.6 206.5 61.4C206.7 61.3 206.4 61 206.3 61.2C205.2 62.2 203.8 62.9 202.4 63.2C201.8 63.3 200.9 63.5 200.3 63.3C199.1 62.9 199 61.7 198.8 60.7C198.8 60.3 198.5 60.4 198.5 60.6Z" fill="white"/>
<path d="M205.2 62C205.2 62 203.1 63.3 200.9 63.2C198.7 63.2 199 61 199 61L205.7 60.5L206 61.3L205.2 62Z" fill="#03CDFD"/>
<path d="M187.9 64.5C187.7 64.7 187.4 64.8 187.2 64.9C186.8 64.4 186.4 63.6 186.1 63.1C185.8 62.7 185.6 62.2 185.4 61.7C185 60.9 184.9 60 184.6 59.2C184.3 58 184.5 56.9 185.8 55.7C191.1 50.6 188 54.8 188.6 56.1C189.4 57.5 189.5 59.9 187.9 64.5Z" fill="#03CDFD"/>
<path d="M172.8 73.4C173 73.3 173.1 73 173 72.8C172.7 72.1 171.9 70.9 169.9 70.5C168 70.1 167 70.4 166.6 70.7C166.4 70.8 166.3 71 166.4 71.2C166.5 71.7 166.8 72.7 167.7 73.5C168.8 74.6 170.4 74.8 172.8 73.4Z" fill="#FFAAAB"/>
<path d="M185.3 57.3C183.5 59.9 185.6 64.3 188 65.9C188.3 66.1 188 66.5 187.7 66.3C185.2 64.6 182.9 59.8 184.9 57C185.1 56.8 185.5 57 185.3 57.3Z" fill="#0680F1"/>
<path d="M180.8 68.9C180.4 68.7 180 68.3 179.4 68.3C179.1 68.3 179.1 67.8 179.4 67.8C180 67.9 180.5 68.2 181 68.5C181.3 68.6 181.1 69 180.8 68.9Z" fill="white"/>
<path d="M202.3 71.2C202.8 72.1 203.2 73.8 202.5 74.7C202.4 74.9 202.1 74.6 202.3 74.5C202.9 73.8 202.5 72.1 202.1 71.4C201.9 71.1 202.2 71 202.3 71.2Z" fill="#452B96"/>
<path d="M201.8 72.7C201.9 73.1 201.9 73.5 201.8 73.9C201.7 74.1 201.4 74 201.5 73.8C201.6 73.5 201.6 73.1 201.5 72.8C201.5 72.6 201.8 72.5 201.8 72.7Z" fill="#452B96"/>
<path d="M201 72.9C201.1 73.5 201.1 74.2 200.9 74.8C200.8 75 200.5 74.9 200.6 74.7C200.8 74.1 200.8 73.6 200.7 73C200.7 72.8 201 72.7 201 72.9Z" fill="#452B96"/>
<path d="M190.6 71.5C190 71.6 189.4 71.7 188.8 71.7C188.5 71.7 186.2 71.4 186.1 71.7C185.9 72.4 187.4 72.3 187.3 73C187.2 73.5 186.4 73.5 186.1 73.5C185.3 73.6 184.5 73.5 183.7 73.5C183.5 73.5 182.8 73.4 182.6 73.5C181.7 74.2 183.2 74.8 183.5 75.1C183.7 75.3 183.5 75.6 183.3 75.5C182.8 75.2 180.9 74.5 181.7 73.5C182.5 72.4 185.2 73.6 186.3 73.1C187.2 72.7 186.5 73 186 72.7C185.9 72.6 185.7 72.5 185.6 72.4C185.4 72.1 185.4 71.9 185.6 71.6C185.8 71.3 186.3 71.4 186.5 71.3C187.8 71.1 189.1 71.6 190.4 71.3C190.7 71 190.8 71.4 190.6 71.5Z" fill="white"/>
<path d="M149.8 66.8C149.8 67.6 149.2 68.2 148.4 68.2C147.6 68.2 147 67.6 147 66.8C147 66 147.6 65.4 148.4 65.4C149.2 65.5 149.8 66.1 149.8 66.8Z" fill="white"/>
<path d="M74.3 84.7C74.3 86.3 73 87.5 71.5 87.5C69.9 87.5 68.7 86.2 68.7 84.7C68.7 83.1 70 81.9 71.5 81.9C73 81.8 74.3 83.1 74.3 84.7Z" fill="white"/>
<path d="M99.3 125.4C99.3 125.4 109.9 124.2 113.4 127.9C113.6 128.1 113.4 128.3 113.1 128.3H111.1C110.6 128.3 110.4 128.7 110.7 129C111.8 129.8 113.4 131.2 113.7 132.7C113.8 133.1 113.2 133.4 112.7 133.2C109.9 132.3 102.1 129.8 96.9 129.9L99.3 125.4Z" fill="#FF5252"/>
<path d="M31.3 101.2L99.4 103.5C102 103.6 104.2 101.5 104.2 98.8001V93.4001C104.2 90.8001 102.1 88.7001 99.5 88.7001H32.9C31.3 88.7001 30 89.4001 29.4 90.5001C28.5 92.5001 27.3 95.8001 28.1 99.1001C28.4 100.3 29.7 101.2 31.3 101.2Z" fill="#00578A"/>
<path opacity="0.35" d="M81.4 99.9001L94.2 100.3C95.3 100.3 96.1 99.7001 96.1 99.0001V92.8001C96.1 92.1001 95.3 91.5001 94.2 91.5001H81.5C80.5 91.5001 79.6 92.1001 79.6 92.8001V98.5001C79.7 99.2001 80.5 99.8001 81.4 99.9001Z" fill="white"/>
<path d="M101 81.3001C101 79.0001 99.1 77.1001 96.8 77.1001H34.1C32.8 77.1001 31.7 77.7001 31.3 78.6001C29.6 82.5001 30.6 85.9001 31.3 87.7001C31.6 88.5001 32.7 89.0001 33.8 89.0001H96.7C99 89.0001 100.9 87.1001 100.9 84.8001V81.3001H101Z" fill="#BD3CC2"/>
<path opacity="0.35" d="M35 87.9001L42.6 87.6001C43.6 87.6001 44.3 87.0001 44.3 86.3001V79.9001C44.3 79.2001 43.5 78.6001 42.6 78.6001L35 78.5001C34.1 78.5001 33.4 78.9001 33.2 79.5001C32.7 81.1001 32.1 84.1001 33.1 86.9001C33.4 87.5001 34.1 87.9001 35 87.9001Z" fill="white"/>
<path opacity="0.35" d="M47.6 87.4001C48.5 87.4001 49.3 86.8001 49.3 86.1001V80.0001C49.3 79.3001 48.5 78.7001 47.5 78.7001C46.5 78.7001 45.7 79.3001 45.7 80.0001V86.1001C45.7 86.8001 46.6 87.4001 47.6 87.4001Z" fill="white"/>
<path d="M34.5 135.3L97.1 135.7C99.4 135.7 101.3 133.8 101.3 131.5V118.7C101.3 116.4 99.4 114.5 97 114.5L35.9 116C34.5 116 33.2 116.7 32.7 117.7C31.4 120.3 29.4 126.1 32.2 133.9C32.4 134.8 33.3 135.3 34.5 135.3Z" fill="#0090E3"/>
<path opacity="0.35" d="M59.7 134L73.6 134.8C74.8 134.9 75.7 133.7 75.7 132.3V120.8C75.7 119.4 74.8 118.3 73.7 118.3H59.8C58.7 118.3 57.8 119.4 57.8 120.8V131.5C57.8 132.8 58.6 133.9 59.7 134Z" fill="white"/>
<path opacity="0.35" d="M81.3 115.3H78.1V135.5H81.3V115.3Z" fill="white"/>
<path d="M31.4 113.6H94.3V103.6H31.4C32.5 103.6 32.5 113.6 31.4 113.6Z" fill="#F2EBBF"/>
<path d="M94.3 111.1V106.5C94.3 104.9 93.3 103.6 92 103.6H31.6C30.6 103.6 29.8 102.8 29.8 101.9C29.8 101.6 30 101.4 30.3 101.4H95.3C96.5 101.4 98.5 103.3 98.5 105.6V112C98.5 114.2 96.6 115.9 95.4 115.9H30.6C30.1 115.9 29.8 115.5 29.8 115.1C29.8 114.3 30.5 113.6 31.3 113.6H92.3C93.4 113.6 94.3 112.5 94.3 111.1Z" fill="#FFA800"/>
<path d="M92.8 105.9H36.7C36.6 105.9 36.4 105.8 36.4 105.7C36.4 105.6 36.5 105.5 36.7 105.5H92.8C92.9 105.5 93.1 105.6 93.1 105.7C93.1 105.8 93 105.9 92.8 105.9Z" fill="white"/>
<path d="M92.8 107.4H36.7C36.6 107.4 36.4 107.3 36.4 107.2C36.4 107.1 36.5 107 36.7 107H92.8C92.9 107 93.1 107.1 93.1 107.2C93.1 107.3 93 107.4 92.8 107.4Z" fill="white"/>
<path d="M92.8 108.9H36.7C36.6 108.9 36.4 108.8 36.4 108.7C36.4 108.6 36.5 108.5 36.7 108.5H92.8C92.9 108.5 93.1 108.6 93.1 108.7C93.1 108.8 93 108.9 92.8 108.9Z" fill="white"/>
<path d="M92.8 110.4H36.7C36.6 110.4 36.4 110.3 36.4 110.2C36.4 110.1 36.5 110 36.7 110H92.8C92.9 110 93.1 110.1 93.1 110.2C93.1 110.3 93 110.4 92.8 110.4Z" fill="white"/>
<path d="M92.8 111.8H36.7C36.6 111.8 36.4 111.7 36.4 111.6C36.4 111.5 36.5 111.4 36.7 111.4H92.8C92.9 111.4 93.1 111.5 93.1 111.6C93.1 111.7 93 111.8 92.8 111.8Z" fill="white"/>
<path d="M33.9 88.7C33.9 88 33.6 87.4 33.1 86.9C33.4 86.5 33.6 86 33.6 85.5C33.6 84.2 32.5 83.1 31.2 83.1C31.2 83 31.2 82.9 31.2 82.8C31.2 81.5 30.1 80.4 28.8 80.4C28.2 80.4 27.7 80.6 27.3 80.9C26.8 80 26 79.5 25 79.5C23.9 79.5 22.9 80.3 22.7 81.3C22.4 81.1 22 81 21.5 81C20.2 81 19.1 82.1 19.1 83.4C19.1 83.5 19.1 83.6 19.1 83.7C17.9 83.9 17 84.9 17 86.1C17 86.7 17.2 87.2 17.5 87.6C17 88 16.6 88.7 16.6 89.4C16.6 90.5 17.3 91.4 18.3 91.7C18.2 92 18.1 92.3 18.1 92.7C18.1 94 19.2 95.1 20.5 95.1C20.8 95.1 21.1 95 21.4 94.9C21.8 95.7 22.6 96.2 23.5 96.2C24.3 96.2 25 95.8 25.4 95.2C25.8 95.8 26.5 96.2 27.3 96.2C28.5 96.2 29.5 95.4 29.7 94.2C29.8 94.2 29.8 94.2 29.9 94.2C31.2 94.2 32.3 93.1 32.3 91.8C32.3 91.5 32.2 91.1 32.1 90.8C33.2 90.6 33.9 89.7 33.9 88.7ZM29.2 89.6C28.4 89.9 27.8 90.6 27.6 91.4C27.5 91.4 27.5 91.4 27.4 91.4C26.6 91.4 25.9 91.8 25.5 92.4C25.1 91.8 24.4 91.4 23.6 91.4C23.3 91.4 23 91.5 22.7 91.6C22.4 91.1 21.9 90.6 21.3 90.5C21.4 90.2 21.5 89.9 21.5 89.5C21.5 88.9 21.3 88.4 21 88C21.5 87.6 21.9 86.9 21.9 86.2C21.9 86.1 21.9 86 21.9 85.9C22.9 85.8 23.7 85.1 23.9 84.1C24.2 84.3 24.6 84.4 25.1 84.4C25.7 84.4 26.2 84.2 26.6 83.9C27 84.7 27.8 85.3 28.8 85.3C28.8 85.4 28.8 85.5 28.8 85.6C28.8 86.3 29.1 86.9 29.6 87.4C29.3 87.8 29.1 88.3 29.1 88.8C29.1 89 29.1 89.3 29.2 89.6Z" fill="#241F3F"/>
<path d="M4.99997 118.5C5.59997 116.5 8.59997 116.3 10.2 116.6C11.3 116.8 12.2 117.3 13.1 117.8C14.1 118.3 15.3 118.7 16.3 119.3C18.8 120.8 21.6 121.6 24.5 121.8C27 121.9 29.8 121.1 32.2 120.3C34.2 119.6 36.3 119 38.3 118.2C39.2 117.9 40.4 117.3 41.4 117.3C42.6 117.3 45.4 117.8 45.3 119C45.1 122.5 39.1 125.4 36.5 126.9C34.8 127.9 33.2 128.8 31.5 129.8C30.3 130.5 29.1 131 27.7 131.1C25.1 131.4 22.3 130.2 20.1 128.9C17.4 127.3 15 125.2 12.4 123.3C11.3 122.7 10.2 122.2 4.99997 118.5Z" fill="#004A75"/>
<path d="M37.5 111.4C37.1 111.7 36.6 112.4 36.1 112.5C35.6 112.6 35.2 112.2 34.7 112.2C32.5 112 30.2 113.2 28.1 113.7C25.3 114.4 22.3 115.1 19.4 115.1C18.1 115.1 16.8 115.3 15.5 114.9C14.6 114.6 13.2 114.1 12.5 113.4C11.3 112.3 12.5 110.7 13 109.6C13.9 107.5 14.3 105.3 14.9 103.1C15.4 101.6 16 99.6 17.5 98.8C20.3 97.5 23.5 96.6 26.6 96.7C28.9 96.8 31.2 97.6 32.9 99.1C34.2 100.3 34.8 102 35.5 103.6C35.8 104.4 36.2 105.2 36.6 106C37.1 106.8 37.8 107.4 38.2 108.3C38.7 109.5 38.4 110.6 37.5 111.4Z" fill="#03CDFD"/>
<path d="M21.2 98C21.5 97.3 23.0999 96.9 23.7999 96.8C24.9999 96.6 26.2 96.7 27.4 96.9C28.4999 97.1 30 97.5 29.6 99C29.3 100.1 28.6 101.1 28 102.1C27.6 102.7 27.2999 103.3 26.7999 103.9C26.6999 104.1 26.6 104.3 26.5 104.5C26.3 105 25.5999 105 25.2999 104.6C24.6999 103.7 23.9999 103.3 23.2999 102.5C22.2999 101.3 21.3 100 21.2 98Z" fill="white"/>
<path d="M17.8 110C17.8 109.3 18 108.7 18.1 108C18.3 107.1 18.4 106.8 19 107.7C19.3 108.1 20.3 109.4 20.2 109.9C20.1 110.4 18.5 110.7 17.8 110Z" fill="#0680F1"/>
<path d="M31 109.4C31 108.8 31.2 108.3 31.3 107.8C31.4 107.5 31.4 106.3 31.7 106.1C32.4 105.6 33.3 108.7 33.3 109.2C33.3 109.8 33.1 109.7 32.5 109.8C32.1 109.9 31.6 110 31 109.4Z" fill="#0680F1"/>
<path d="M34.2 120.4C33.8 120.7 33.3 121.1 32.9 121.3C32.7 121.4 32.5 121.5 32.4 121.5C32.4 121.4 32.5 121.2 32.6 120.9C32.8 120.4 33.1 119.8 33.5 119.1C34.1 117.9 34.8 116.6 34.9 116.4C35.1 115.8 35.2 115.3 35.2 114.8C35.3 113.7 35.9 112.8 36.7 111.9C37 111.5 37.4 111.2 37.8 110.8C37.9 111.8 38.3 112.7 38.4 113.7C38.4 115.2 35.3 119.6 34.2 120.4Z" fill="#B2563D"/>
<path d="M17.9 119.2C17.8 119.7 17.7 120.3 17.6 120.8C17.6 121 17.5 121.3 17.5 121.5C16.5 120.7 14.2 117.4 13.6 116.4C13.2 115.6 12.4 114.3 12.5 113.4C13 113.6 13.4 113.9 13.8 114.1C14 114.2 14.2 114.4 14.5 114.4C15 114.6 16.1 114.6 16.5 115.1C16.7 115.5 17.9 118.7 17.9 119.2Z" fill="#B2563D"/>
<path d="M29 134.5C29.5 134.6 29.9 135 30.3 135.2C31 135.6 31.7 135.7 32.4 135.6C33 135.6 33.7 135.5 34.3 135.3C34.9 135.2 35.5 135.2 36 134.9C36.5 134.6 37.3 133.9 37.5 133.3C37.8 132.4 36.8 132.3 36.2 132.2C34.9 132 33.4 132.1 32.2 132.2C31.4 132.3 30.7 132.4 30 132.5C29.1 132.6 28.4 132.7 29 134.5Z" fill="#1F1440"/>
<path d="M23 132.7C21.8 133.1 20.6 132.8 19.3 132.5C18.5 132.3 17.8 132 17 131.9C16.1 131.9 15.6 132.2 14.9 132.7C14.2 133.2 13.8 133.6 14.3 134.4C14.4 134.5 14.4 134.7 14.5 134.8C15.1 135.3 15.9 135.5 16.8 135.5C17 135.5 17.1 135.5 17.3 135.5C18.9 135.5 20.5 135.5 22.1 135.2C22.2 135.1 22.4 135.1 22.5 135C22.6 134.9 22.8 134.8 22.9 134.7C23 134.6 23.1 134.5 23.2 134.4C23.5 133.9 23.5 133.3 23 132.7Z" fill="#1F1440"/>
<path d="M34.2 120.4C33.8 120.7 33.3 121.1 32.9 121.3C32.7 121.2 32.6 121.1 32.6 120.9C32.4 120.4 32.9 119.7 33.5 119.1C33.8 118.7 34.2 118.4 34.4 118.1C34.9 117.5 35.2 116.8 35.6 116.1C36 115.5 36.5 115 36.8 114.4C37.2 113.7 37.1 112.6 36.7 111.7C37 111.3 37.4 111 37.8 110.6C37.9 111.6 38.3 112.5 38.4 113.5C38.4 115.2 35.3 119.6 34.2 120.4Z" fill="#93402C"/>
<path d="M17.7 121.3C17.7 121.4 17.6 121.4 17.5 121.4C16.5 120.6 14.2 117.3 13.6 116.3C13.2 115.5 12.4 114.2 12.5 113.3C13 113.5 13.4 113.8 13.8 114C13.9 114.2 14.1 114.4 14.1 114.5C14.3 114.9 14.5 115.4 14.7 115.9C15.1 116.7 15.6 117.6 16.1 118.3C16.3 118.6 17.2 119.9 17.5 120.7C17.7 121 17.8 121.2 17.7 121.3Z" fill="#93402C"/>
<path d="M38.4 108.7C37.8 109.1 37 109.3 36.4 109.7C35.8 110.1 34.9 110.3 34.4 110.9C35.4 109.4 36.5 109.1 37.5 108.5C37.6 108.4 37.9 108.2 38.2 108.1C38.3 108.2 38.3 108.3 38.3 108.4C38.3 108.5 38.3 108.6 38.4 108.7Z" fill="#0680F1"/>
<path d="M16 113C15.7 112.5 15.2 112.2 14.8 111.9C14.3 111.5 13.8 110.9 13.2 110.7C12.9 110.6 12.7 110.6 12.5 110.6C12.6 110.4 12.7 110.1 12.8 109.9C13.3 110 13.7 110.2 13.9 110.3C14.8 110.8 15.7 111.5 16 113Z" fill="#0680F1"/>
<path d="M33.2 111.9C33.4 111.9 33.5 111.7 33.7 111.5C34.1 111.2 34.3999 110.9 34.7999 110.6C35.5999 110.1 36.4 109.5 37.2 109C37.6 108.7 38.0999 108.5 38.5999 108.3C38.6999 108.2 38.9 108.1 39 108.1C39.5 108.2 39.6 109.2 39.7 109.6C39.8 109.9 40 110.4 39.9 110.7C39.8 110.9 39.6999 111.2 39.5999 111.5C39.4999 111.8 39.3 112 39 112.1C38.6 112.3 38.1999 112.4 37.7999 112.6C37.1999 112.9 36.6999 113.2 36.0999 113.5C35.6999 113.8 35.0999 114.1 34.5999 114.1C33.6999 114.2 33.3 112.8 33.2 111.9Z" fill="#03CDFD"/>
<path d="M16.7 115.7C16.3 115.9 15.7 115.6 15.3 115.4C14.7 115.2 14.1 115 13.4 114.7C12.9 114.5 12.5 114.5 12 114.4C11 114.2 11.1 113.6 11.2 112.7C11.3 112 11.1 111.1 11.6 110.5C12.2 109.9 13.2 110.5 13.7 110.9C14.8 111.9 16.4 113 16.7 115.7Z" fill="#03CDFD"/>
<path d="M28 97.2C28 97.9 27.9 98.7 27.4 99.2C26.3 100.4 24.7 99.5 23.6 98.8C23.3 98.6 23 98.3 22.8 97.9C22.7 97.5 22.8 97 22.9 96.6C23 96.2 23 95.8 23 95.4C23 95.2 23 95.1 23 94.9C23 94.2 23 93.5 22.8 92.8C27.5 93 27.5 92.3 27.7 93.4C27.7 93.6 27.8 93.8 27.8 94C27.8 94.3 27.9 94.6 27.9 94.8C27.9 95.7 28 96.5 28 97.2Z" fill="#B2563D"/>
<path d="M27.9 94.9C27.9 95 27.8 95 27.8 95C26.9 95.8 25.5 95.7 24.4 95.5C23.9 95.4 23.4 95.2 23.1 94.9C23.1 94.2 23.1 93.5 22.9 92.8C27.6 93 27.6 92.3 27.8 93.4C27.8 93.6 27.9 93.8 27.9 94C27.8 94.3 27.8 94.6 27.9 94.9Z" fill="#93402C"/>
<path d="M25 131C24.3 130.5 23.6 130.1 22.9 129.5C22.1 128.8 21.1 128.3 20.4 127.5C18.9 126 17.2 124.7 15.7 123.2C13.9 121.4 12 119.3 9.79997 118.1C8.09997 117.1 5.19997 116.3 4.79997 119.1C4.59997 120.7 5.79997 122.7 6.59997 124.1C7.69997 126 9.49997 127.1 11.3 128.3C14.4 130.3 17.9 131.8 21.4 132.9C23.2 133.5 25.1 133.9 26.9 134.5C27.3 134.6 27.7 134.8 28.1 134.9C28.2 134.9 28.4 135.1 28.6 135.1C29 135.1 28.9 135.1 29.1 134.8C29.8 134 29.7 132.9 28.7 132.5C28.2 132 27.5 131.9 25 131Z" fill="#00578A"/>
<path d="M29.4999 89C29.4999 90.1 29.3 91.3 28.7 92.2C28.5 92.5 28.3 92.8 27.9999 93.1C26.9999 94.2 25.6 95.1 24.2 94.4C23.3 94 22.4999 93.3 21.8999 92.6C21.3999 91.9 21.0999 91.2 20.9999 90.4C20.8999 89.7 20.9999 89.1 20.9999 88.4C20.9999 87.6 21.1 86.8 21.2 86.1C22.2 85.4 22.9999 84.9 23.7999 84.6C26.1999 83.5 27.5 83.7 28.6 84.6C29.1 85 29.3999 85.7 29.4999 86.3C29.5999 86.6 29.5999 87 29.5999 87.3C29.4999 87.7 29.4999 88.4 29.4999 89Z" fill="#B2563D"/>
<path d="M29.5 89C29.2 88.7 28.9 88.5 28.4 88.4C27.6 88.3 26.9 89 26.2 89.1C25.5 89.2 24.8 89.2 24.2 89C23.4 88.7 22.8 88.3 21.9 88.2C21.7 88.2 21.3 88.3 21 88.3C21 87.5 21.1 86.7 21.2 86C22.2 85.3 23 84.8 23.8 84.5C24.5 84.4 25.1 84.4 25.8 84.5C26.9 84.6 27.9 84.7 28.8 85.4C29 85.6 29.3 85.9 29.4 86.2C29.5 86.5 29.5 86.9 29.5 87.2C29.5 87.7 29.5 88.4 29.5 89Z" fill="#93402C"/>
<path d="M20.8 90.1C21.1 92 22.1 93.7 23.9 94.5C25.5 95.2 27.4 94.4 28.4 93.1C28.5 93 28.3 92.8 28.2 92.9C27.2 94.2 25.3 95 23.7 94.1C22.1 93.2 21.3 91.7 21 90C21 89.8 20.8 89.9 20.8 90.1Z" fill="white"/>
<path d="M25.8 105.1C25.9 106.7 26.1 108.2 26.1 109.8C26.1 110 26.3 110 26.3 109.8C26.3 108.2 26.2 106.6 26 105.1C26.1 104.9 25.8 104.9 25.8 105.1Z" fill="white"/>
<path d="M26.1 105.1C26.7 104.3 27.3 103.5 27.8 102.6C28.4 101.7 28.9 100.8 29.3 99.8C29.6 99.2 29.9 98.4 29.5 97.7C29.2 97.3 28.7 96.7 28.2 96.6C28 96.6 28 96.8 28.1 96.8C28.6 96.9 29.1 97.5 29.4 97.9C29.8 98.6 29.1 99.9 28.7 100.5C27.9 102 27 103.5 25.9 104.8C25.8 105.1 26 105.3 26.1 105.1Z" fill="white"/>
<path d="M22.2 97.1C21.6 97.4 21.1 97.9 21.2 98.6C21.3 99.4 21.7 100.3 22.1 101C22.6 101.8 23.2 102.5 23.8 103.2C24.1 103.6 24.5 104 24.9 104.4C25.2 104.6 25.6 104.8 25.7 105.2C25.8 105.3 26 105.2 25.9 105.1C25.8 104.9 25.6 104.8 25.5 104.6C25.2 104.3 24.9 104.1 24.6 103.8C24 103.2 23.4 102.5 22.9 101.8C22.4 101.1 21.9 100.5 21.6 99.7C21.5 99.3 21.3 98.8 21.3 98.4C21.4 97.8 21.8 97.5 22.2 97.3C22.5 97.2 22.4 97 22.2 97.1Z" fill="white"/>
<path d="M28.6 97.3C29.2 97.9 29.8 98.4 30.2 99.1C30.3 99.4 30.5 99.6 30.6 99.9C30.7 100.1 30.9 100.5 30.8 100.7C30.7 100.8 30.9 100.9 31 100.8C31.3 100.4 30.7 99.6 30.6 99.3C30.2 98.4 29.5 97.8 28.8 97.1C28.6 97 28.5 97.2 28.6 97.3Z" fill="white"/>
<path d="M30.8 100.6C30.2 100.8 29.6 101.1 29.1 101.6C29 101.7 29.2 101.9 29.3 101.8C29.7 101.4 30.3 101.1 30.9 100.9C31 100.8 31 100.6 30.8 100.6Z" fill="white"/>
<path d="M29.1 101.8C29.5 102.3 30.2 102.6 30.3 103.2C30.3 103.4 30.6 103.3 30.5 103.1C30.4 102.4 29.7 102.1 29.3 101.6C29.2 101.6 29 101.7 29.1 101.8Z" fill="white"/>
<path d="M30.3 103.2C27.9 104.5 26.9 107.7 26.9 110.2C26.9 110.4 27.2 110.4 27.1 110.2C27.1 107.7 28.1 104.6 30.4 103.4C30.6 103.3 30.5 103.1 30.3 103.2Z" fill="white"/>
<path d="M22.1 97.1C20.8 98 19.8 99 19.4 100.3C19.3 100.5 19.7 100.5 19.7 100.4C20.1 99.1 21.1 98.2 22.3 97.3C22.5 97.2 22.3 97 22.1 97.1Z" fill="white"/>
<path d="M19.5 100.5C20 100.6 20.7 100.9 21 101.4C21.1 101.5 21.3 101.4 21.2 101.3C20.8 100.8 20.1 100.4 19.5 100.3C19.4 100.3 19.3 100.5 19.5 100.5Z" fill="white"/>
<path d="M21 101.3C20.6 101.9 20 102.5 20.1 103.3C20.1 103.5 20.4 103.5 20.3 103.3C20.2 102.5 20.8 102 21.2 101.4C21.3 101.3 21.1 101.2 21 101.3Z" fill="white"/>
<path d="M20.2 103.4C21 103.4 21.6 104 22 104.6C22.4 105.1 22.9 105.7 23.2 106.3C24.1 107.8 24.8 109.5 25.1 111.2C25.1 111.4 25.4 111.3 25.3 111.1C25 109.2 24.2 107.3 23.1 105.6C22.5 104.6 21.5 103 20.1 103.1C20.1 103.1 20.1 103.4 20.2 103.4Z" fill="white"/>
<path d="M31.5 105.8C31.8 106.4 32.4 107 32.6 107.6C32.7 107.9 32.7 108.2 32.8 108.5C32.9 108.9 33 109.2 33.1 109.6C33.1 109.8 33.4 109.7 33.3 109.5C33.2 109.1 33 108.8 33 108.4C32.9 108 32.9 107.7 32.7 107.3C32.4 106.7 32 106.2 31.6 105.6C31.7 105.5 31.5 105.7 31.5 105.8Z" fill="white"/>
<path d="M32.4 106.5C32.4 106.3 32.4 106.2 32.5 106C32.5 105.8 32.3 105.8 32.3 105.9C32.3 106.1 32.2 106.3 32.2 106.4C32.1 106.7 32.4 106.7 32.4 106.5Z" fill="white"/>
<path d="M17.8 110.1C17.9 109.2 18 108.5 18.3 107.6C18.5 106.9 18.8 106.3 18.6 105.6C18.6 105.4 18.3 105.5 18.4 105.7C18.7 106.5 18.2 107.3 18 108C17.8 108.7 17.7 109.4 17.7 110.1C17.5 110.2 17.7 110.2 17.8 110.1Z" fill="white"/>
<path d="M18.5 107.1C18.6 106.9 18.8 106.7 19 106.6C19.1 106.5 19 106.3 18.9 106.4C18.6 106.5 18.4 106.8 18.3 107C18.2 107.1 18.4 107.2 18.5 107.1Z" fill="white"/>
<path d="M35 110.7C35.8 110.3 36.6 109.7 37.3 109.2C37.9 108.8 38.5 108.5 39.1 108.2C39.2 108.1 39.1 107.9 39 108C38.4 108.3 37.7 108.6 37.2 109C36.4 109.5 35.7 110 34.9 110.5C34.7 110.6 34.9 110.8 35 110.7Z" fill="white"/>
<path d="M11.9 110.5C13.5 110.6 14.4 111.7 15.6 112.7C15.7 112.8 15.9 112.6 15.8 112.5C14.6 111.5 13.6 110.3 11.9 110.2C11.8 110.2 11.8 110.5 11.9 110.5Z" fill="white"/>
<path d="M31.9 124.7H18.7C17.8 124.7 17 124 16.8 123.1L14.6 111.5C14.4 110.3 15.3 109.1 16.5 109.1H33.9C35.1 109.1 36 110.2 35.8 111.4L33.8 123C33.6 124 32.9 124.7 31.9 124.7Z" fill="#0090E3"/>
<path d="M32.2 124.3H18.4C17.4 124.3 16.6 123.6 16.4 122.6L14 110.9C13.9 110.3 14 109.6 14.4 109.1C14.8 108.6 15.4 108.3 16 108.3H34.1C34.7 108.3 35.3 108.6 35.7 109C36.1 109.5 36.3 110.1 36.2 110.7L34.2 122.3C34.1 123.5 33.2 124.3 32.2 124.3ZM16 108.6C15.4 108.6 14.9 108.8 14.6 109.3C14.2 109.7 14.1 110.3 14.2 110.9L16.5 122.5C16.7 123.4 17.4 124 18.3 124H32.2C33.1 124 33.9 123.3 34 122.4L36 110.8C36.1 110.2 35.9 109.7 35.6 109.2C35.2 108.8 34.7 108.5 34.2 108.5H16V108.6Z" fill="#0090E3"/>
<path d="M27 116.4V116.5C27 117.8 25.8 118.6 24.7 118.4C24.6 118.4 24.5 118.4 24.5 118.3C23.8 118 23.3 117.3 23.5 116.5C23.6 116.1 23.9 115.7 24.2 115.6C24.6 115.5 24.8 115.8 25.1 116C25.5 116.3 25.7 116 26.1 115.8C26.2 115.7 26.4 115.7 26.6 115.7C26.8 115.9 26.9 116.2 27 116.4Z" fill="#B29EEF"/>
<path d="M4.99995 118.3C5.49995 121.6 7.99995 123.9 10.4 126C13 128.2 16.1 129.6 19 131.3C20.7 132.3 22.5 132.9 24.2 133.6C24.3 133.7 24.4 133.4 24.3 133.4C23.3 133 22.4 132.6 21.4 132.2C20.4 131.8 19.4 131.2 18.5 130.7C16.7 129.7 14.9 128.8 13.2 127.7C11.5 126.6 9.79995 125.3 8.39995 123.8C6.89995 122.3 5.69995 120.4 5.29995 118.3C5.19995 118 4.89995 118.1 4.99995 118.3Z" fill="#2E1D66"/>
<path d="M21.9 132.8C23.8 131.6 25.6 130.7 27.5 129.5C29.5 128.1 31.3 126.4 33 124.7C34.8 123 36.6 121.5 38.6 120.1C40 119.2 42 117.1 43.8 117.8C45.6 118.4 46.4 120 46 121.8C45.6 123.8 44.2 125.3 42.7 126.5C41.7 127.3 40.8 128.1 39.8 128.8C38.8 129.5 37.7 130.1 36.6 130.8C34.8 131.9 33.1 132.9 31 133.4C29.3 133.8 27.6 134.1 26 134.7C24.7 135.1 23.5 135.4 22.3 135.6C22.2 135.6 22.2 135.6 22.1 135.6C21.8 135.7 21.5 135.4 21.5 135.1C21.4 134.6 21.7 133.7 21.9 132.8Z" fill="#00578A"/>
<path d="M21.4 135.2C23.7 134.8 26.1 133.9 28.3 133C30.6 132.1 32.8 131 35 129.9C38.6 128 42.7 125.9 44.6 122C45.3 120.6 45.7 118.7 44.1 117.7C44 117.6 43.8 117.8 44 117.9C45.6 118.9 44.9 121 44.1 122.3C43.2 124 41.7 125.3 40.2 126.5C38.5 127.7 36.7 128.7 34.8 129.7C32.7 130.8 30.5 131.9 28.3 132.7C26.1 133.6 23.7 134.5 21.3 134.9C21.2 135 21.2 135.2 21.4 135.2Z" fill="#2E1D66"/>
<path d="M22.1 135.8C21.6 135.5 21.5 135.2 21.6 134.7C21.7 134.3 21.8 133.9 21.9 133.6C22.2 132.7 23.4 132.3 24.2 131.9C25.2 131.3 26.2 130.7 27.1 130C27.9 129.4 28.8 128.9 29.5 128.1C29.6 128 29.4 127.8 29.3 127.9C28.8 128.4 28.2 128.8 27.7 129.2C27.1 129.6 26.6 130 26 130.4C24.9 131.2 23.6 131.7 22.5 132.4C21.8 132.8 21.6 133.5 21.4 134.3C21.2 135.1 21.2 135.7 22 136C22.1 136.1 22.2 135.9 22.1 135.8Z" fill="white"/>
<path d="M32.4 125.6C34.2 123.8 36.1 122.1 38.1 120.5C39.1 119.8 40.1 119.1 41.2 118.5C42.4 117.8 43.7 117.2 44.9 118.4C45 118.5 45.2 118.3 45.1 118.2C44.3 117.4 43.3 117.3 42.3 117.7C41 118.3 39.8 119.1 38.6 119.9C36.3 121.6 34.3 123.5 32.2 125.5C32.1 125.6 32.2 125.7 32.4 125.6Z" fill="white"/>
<path d="M26.4 134.8C27.9 133.9 29.9 133.7 31.6 133.2C32.5 132.9 33.5 132.6 34.4 132.3C35.4 131.9 36.3 131.4 37.3 131.1C37.4 131 37.4 130.8 37.2 130.9C36.2 131.3 35.3 131.7 34.3 132.1C33.3 132.5 32.3 132.8 31.3 133.1C29.6 133.6 27.7 133.7 26.2 134.6C26.1 134.7 26.2 134.9 26.4 134.8Z" fill="white"/>
<path d="M20.5 87.4C20.7 87.2 20.8 87.1 21.1 87.1C21.6 87.2 22.2 86.7 22.6 86.5C22.7 86.4 22.8 86.4 22.9 86.3C23.1 86 23 85.7 23.1 85.4C23.2 85.1 23.5 84.9 23.8 84.8C23.9 84.7 24.1 84.7 24.2 84.8C24.6 85 24.5 85.5 24.7 85.7C25 86 25.3 85.6 25.5 85.4C25.8 85.1 26.3 85.1 26.3 85.6C26.3 85.7 26.3 85.8 26.3 85.8C26.3 85.9 26.4 85.9 26.5 86C26.8 86.1 27 85.9 27.3 85.8C27.9 85.5 27.9 86 27.8 86.4C27.7 86.9 27.9 87.1 28.4 87.2C28.6 87.2 28.7 87.2 28.8 87.4C28.9 87.6 28.9 87.8 29.1 87.9C29.2 88 29.3 88 29.5 88C30.3 87.9 30.9 87.3 30.9 86.5C30.8 85.8 30.3 85.1 29.9 84.6C29.1 83.6 28.2 83.1 26.9 82.7C25.6 82.3 24.3 82.7 23.1 83.2C22.2 83.6 21.5 84.3 20.8 85C20.5 85.3 20.3 85.5 20.1 85.9C20 86.2 19.8 86.3 19.8 86.7L20.5 87.4Z" fill="#241F3F"/>
<path d="M22.6 85.2C22.1 85.4 21.9 85.8 22.2 86.3C22.3 86.5 22.5 86.6 22.7 86.7C22.9 86.8 23.5 86.9 23.1 87.1C22.8 87.2 22.2 87.3 22.3 87.8C22.3 88 22.5 88 22.6 88.1C22.8 88.2 23.2 88.2 23 88.4C22.8 88.6 23.1 88.9 23.3 88.7C23.6 88.4 23.7 88.1 23.3 87.9C23.2 87.9 22.7 87.7 22.7 87.6L23.3 87.5C23.6 87.4 23.8 87.1 23.6 86.8C23.5 86.6 23.2 86.5 23 86.4C22.8 86.3 21.8 85.8 22.5 85.5C23 85.6 22.9 85.1 22.6 85.2Z" fill="#241F3F"/>
<path d="M19.5 83.6C19 83.8 18.6 83.1 18.5 82.7C18.4 82.4 18 82.5 18.1 82.8C18.3 83.4 18.9 84.3 19.7 84C19.9 83.9 19.8 83.5 19.5 83.6Z" fill="#241F3F"/>
<path d="M31.1 83.4C31.6 83.2 31.9 82.8 32.1 82.4C32.2 82.1 31.8 82 31.7 82.3C31.6 82.6 31.3 82.9 31 83C30.7 83.1 30.8 83.5 31.1 83.4Z" fill="#241F3F"/>
<path d="M18.6 84.5C18.2 84.7 17.9 85 17.9 85.5C17.9 85.8 18.3 85.8 18.4 85.5C18.4 85.2 18.6 85 18.9 84.9C19.1 84.8 18.8 84.4 18.6 84.5Z" fill="#4D4A68"/>
<path d="M18.7 85.1C18.6 85.2 18.5 85.3 18.5 85.4C18.4 85.5 18.6 85.6 18.7 85.5C18.8 85.4 18.9 85.3 18.9 85.2C19 85.1 18.8 85 18.7 85.1Z" fill="#4D4A68"/>
<path d="M31.6 84.1C32.2 84.5 32.9 85.1 32.5 85.8C32.4 85.9 32.6 86 32.7 85.9C33.2 85 32.4 84.3 31.7 83.9C31.6 83.9 31.5 84.1 31.6 84.1Z" fill="#4D4A68"/>
<path d="M31.8 84.9C31.9 85 32.1 85.1 32 85.2C31.9 85.3 32.1 85.4 32.2 85.3C32.3 85 32.1 84.8 31.9 84.6C31.8 84.6 31.7 84.8 31.8 84.9Z" fill="#4D4A68"/>
<path d="M18.9 91.6C18.5 92.5 18.8 94 20 94.1C20.1 94.1 20.1 93.9 20 93.9C19 93.8 18.8 92.5 19.1 91.8C19.1 91.5 18.9 91.4 18.9 91.6Z" fill="#4D4A68"/>
<path d="M19.3 92.9C19.4 93.1 19.6 93.2 19.8 93.2C19.9 93.2 19.9 93 19.8 93C19.7 93 19.6 92.9 19.5 92.8C19.4 92.6 19.2 92.7 19.3 92.9Z" fill="#4D4A68"/>
<path d="M31.6 91.9C31.6 92.5 31.2 92.8 30.7 93.1C30.4 93.2 30.7 93.6 30.9 93.5C31.5 93.2 32 92.7 32 91.9C32 91.6 31.6 91.6 31.6 91.9Z" fill="#4D4A68"/>
<path d="M28 86.3C28 86.6 28.1 87 28.4 87.2C28.7 87.4 29 87.5 29.3 87.6C29.6 87.7 29.7 87.2 29.4 87.2C29.2 87.1 28.9 87.1 28.7 86.9C28.5 86.8 28.4 86.5 28.4 86.3C28.5 86 28 86 28 86.3Z" fill="#4D4A68"/>
<path d="M23.5 91.4H26.9C26.9 91.4 26.6 93.3 25.2 93.2C23.8 93.1 23.5 91.4 23.5 91.4Z" fill="white"/>
<path d="M131.9 94.6H113.5C112.6 94.6 111.9 93.9 111.9 93V91.3C111.9 90.4 112.6 89.7 113.5 89.7H131.9C132.8 89.7 133.5 90.4 133.5 91.3V93C133.5 93.9 132.8 94.6 131.9 94.6Z" fill="#F2973D"/>
<path d="M103.7 97.3C103.7 99.1 104.2 101.5 97.1 101.5" stroke="white" stroke-width="0.25" stroke-miterlimit="10" stroke-linecap="round"/>
</svg>
